<?xml version="1.0" encoding="utf-8"?>
<!-- Generator: Adobe Illustrator 16.0.0, SVG Export Plug-In . SVG Version: 6.00 Build 0)  -->
<!DOCTYPE svg PUBLIC "-//W3C//DTD SVG 1.1//EN" "http://www.w3.org/Graphics/SVG/1.1/DTD/svg11.dtd">
<svg version="1.1" id="Layer_1" xmlns="http://www.w3.org/2000/svg" xmlns:xlink="http://www.w3.org/1999/xlink" x="0px" y="0px"
	 width="27px" height="27px" viewBox="0 0 27 27" enable-background="new 0 0 27 27" xml:space="preserve">
<g display="none">
	<linearGradient id="SVGID_1_" gradientUnits="userSpaceOnUse" x1="0.3652" y1="13.498" x2="26.6924" y2="13.498">
		<stop  offset="0" style="stop-color:#EBEBED"/>
		<stop  offset="1" style="stop-color:#FFFFFF"/>
	</linearGradient>
	<path display="inline" fill="url(#SVGID_1_)" d="M25.818,13.499c0.709-0.884,1.018-2.041,0.811-3.184
		c-0.217-1.194-0.948-2.194-1.98-2.764c0.338-1.178,0.115-2.468-0.637-3.471c-0.745-0.992-1.931-1.582-3.171-1.582
		c-0.178,0-0.353,0.011-0.525,0.029c-0.61-1.434-2.034-2.413-3.646-2.413c-1.278,0-2.416,0.61-3.141,1.551
		c-0.725-0.94-1.864-1.551-3.142-1.551c-1.611,0-3.037,0.979-3.646,2.417C6.568,2.51,6.392,2.499,6.215,2.499
		c-1.26,0-2.416,0.578-3.171,1.584C2.292,5.084,2.072,6.378,2.408,7.556c-1.031,0.565-1.764,1.565-1.979,2.76
		c-0.21,1.143,0.099,2.302,0.808,3.186c-0.709,0.884-1.018,2.044-0.808,3.185c0.215,1.192,0.947,2.193,1.98,2.762
		c-0.338,1.18-0.116,2.468,0.636,3.473c0.744,0.992,1.931,1.584,3.171,1.584c0.177,0,0.352-0.013,0.525-0.031
		c0.61,1.435,2.034,2.408,3.646,2.408c1.277,0,2.417-0.607,3.142-1.549c0.725,0.941,1.862,1.549,3.141,1.549
		c1.611,0,3.037-0.978,3.646-2.414c0.175,0.024,0.351,0.035,0.527,0.035c1.261,0,2.415-0.579,3.169-1.584
		c0.752-1.003,0.975-2.297,0.637-3.473c1.032-0.566,1.766-1.567,1.98-2.762C26.836,15.543,26.527,14.383,25.818,13.499"/>
	<path display="inline" fill="#80298F" d="M25.818,13.499c0.709-0.887,1.018-2.045,0.811-3.186c-0.217-1.192-0.95-2.192-1.98-2.762
		c0.336-1.178,0.115-2.468-0.637-3.471c-0.745-0.992-1.931-1.582-3.173-1.582c-0.176,0-0.351,0.005-0.523,0.029
		c-0.61-1.432-2.034-2.413-3.647-2.413c-1.278,0-2.414,0.612-3.139,1.551c-0.725-0.938-1.864-1.551-3.142-1.551
		c-1.613,0-3.037,0.981-3.646,2.417C6.568,2.51,6.392,2.499,6.215,2.499c-1.26,0-2.416,0.578-3.169,1.584
		C2.292,5.084,2.072,6.378,2.408,7.552C1.377,8.121,0.645,9.121,0.43,10.315c-0.21,1.143,0.097,2.302,0.808,3.186
		c-0.711,0.884-1.018,2.045-0.808,3.185c0.215,1.192,0.947,2.193,1.98,2.762c-0.338,1.18-0.116,2.468,0.636,3.473
		c0.742,0.992,1.931,1.584,3.171,1.584c0.177,0,0.352-0.013,0.525-0.037c0.61,1.44,2.032,2.418,3.646,2.418
		c1.277,0,2.417-0.61,3.142-1.553c0.725,0.942,1.86,1.553,3.139,1.553c1.613,0,3.039-0.981,3.647-2.418
		c0.175,0.024,0.351,0.037,0.527,0.037c1.261,0,2.415-0.581,3.169-1.586c0.752-1.003,0.973-2.297,0.637-3.473
		c1.03-0.566,1.766-1.567,1.98-2.76C26.836,15.543,26.527,14.383,25.818,13.499 M12.709,22.923c0,1.277-1.04,2.323-2.321,2.323
		c-1.109,0-2.068-0.79-2.278-1.878l-0.011-0.055c-0.021-0.133-0.033-0.26-0.033-0.391c0-0.378,0.092-0.743,0.261-1.066
		c0.615,0.376,1.323,0.578,2.067,0.578v-1.639c-0.621,0-1.204-0.237-1.643-0.68c-0.438-0.439-0.68-1.02-0.68-1.64H6.43
		c0,0.8,0.241,1.569,0.682,2.22c-0.432,0.634-0.668,1.378-0.684,2.161c-0.069,0.003-0.139,0.007-0.211,0.007
		c-0.738,0-1.416-0.338-1.859-0.93c-0.546-0.726-0.615-1.708-0.178-2.51l0.194-0.354l-0.333-0.755l-0.367-0.106
		c-0.849-0.249-1.475-0.944-1.631-1.815c-0.142-0.759,0.113-1.538,0.661-2.074h3.809c0.156,0.745,0.524,1.429,1.073,1.98
		c0.719,0.717,1.711,1.161,2.802,1.161h2.321V22.923z M12.709,15.82h-2.321c-1.238,0-2.251-0.971-2.318-2.19v-0.011
		c-0.002-0.037-0.004-0.079-0.004-0.118c0-0.621,0.242-1.205,0.682-1.641l-1.161-1.159c-0.549,0.551-0.917,1.232-1.073,1.979H2.702
		c-0.546-0.536-0.801-1.31-0.661-2.07C2.199,9.736,2.825,9.04,3.674,8.79l0.367-0.104l0.333-0.754L4.18,7.577
		C3.742,6.778,3.81,5.791,4.355,5.065c0.443-0.59,1.121-0.928,1.859-0.928c0.072,0,0.144,0.002,0.213,0.01
		c0.016,0.78,0.252,1.524,0.684,2.16C6.671,6.954,6.43,7.721,6.43,8.523l1.642,0.002c0-0.621,0.242-1.207,0.68-1.643
		c0.438-0.438,1.021-0.678,1.643-0.678v-1.64c-0.744,0-1.452,0.201-2.067,0.581c-0.169-0.327-0.261-0.69-0.261-1.069
		c0-0.127,0.013-0.259,0.033-0.386l0.011-0.059c0.21-1.088,1.169-1.878,2.278-1.878c1.281,0,2.321,1.043,2.321,2.322V15.82z
		 M14.348,4.077c0-1.279,1.042-2.322,2.32-2.322c1.111,0,2.069,0.79,2.28,1.878l0.011,0.057c0.021,0.125,0.031,0.261,0.031,0.388
		c0,0.379-0.09,0.742-0.259,1.069c-0.615-0.38-1.328-0.581-2.067-0.581v1.64c0.621,0,1.204,0.24,1.643,0.678
		c0.438,0.436,0.679,1.021,0.681,1.643l1.637-0.002c0-0.803-0.237-1.569-0.68-2.216c0.434-0.638,0.671-1.382,0.684-2.164
		c0.067-0.004,0.142-0.01,0.211-0.01c0.741,0,1.419,0.34,1.863,0.932c0.544,0.726,0.614,1.713,0.177,2.508l-0.197,0.357l0.166,0.371
		l0.165,0.384l0.37,0.104c0.85,0.25,1.477,0.946,1.635,1.817c0.138,0.763-0.117,1.536-0.665,2.072h-3.808
		c-0.156-0.746-0.523-1.428-1.074-1.979c-0.719-0.717-1.711-1.163-2.803-1.163h-2.32V4.077z M25.018,16.39
		c-0.158,0.875-0.785,1.569-1.635,1.817l-0.368,0.108l-0.331,0.755l0.195,0.354c0.438,0.796,0.367,1.782-0.177,2.51
		c-0.442,0.592-1.12,0.93-1.859,0.93c-0.071,0-0.144-0.004-0.215-0.011c-0.013-0.78-0.25-1.524-0.684-2.157
		c0.442-0.65,0.68-1.42,0.68-2.22h-1.637c0,0.62-0.243,1.2-0.681,1.64c-0.438,0.442-1.021,0.68-1.643,0.68v1.639
		c0.739,0,1.452-0.202,2.067-0.578c0.169,0.323,0.259,0.688,0.259,1.066c0,0.131-0.011,0.258-0.031,0.391l-0.011,0.055
		c-0.211,1.088-1.169,1.878-2.28,1.878c-1.278,0-2.32-1.046-2.32-2.323V11.179h2.32c1.238,0,2.251,0.97,2.319,2.19
		c0,0,0.001,0.007,0.001,0.013c0.002,0.04,0.002,0.079,0.002,0.119c0,0.621-0.242,1.202-0.68,1.641l1.16,1.158
		c0.551-0.552,0.918-1.235,1.074-1.98h3.811C24.9,14.855,25.155,15.631,25.018,16.39"/>
</g>
<g display="none">
	
		<polygon display="inline" fill="none" stroke="#7ED2F6" stroke-width="2" stroke-linecap="round" stroke-linejoin="round" stroke-miterlimit="10" points="
		25.5,7.505 3.577,4.91 3.577,23.12 25.5,20.488 	"/>
	
		<polygon display="inline" fill="none" stroke="#7ED2F6" stroke-width="2" stroke-linecap="round" stroke-linejoin="round" stroke-miterlimit="10" points="
		1.5,5.504 3.577,4.91 3.577,23.12 1.5,21.836 	"/>
</g>
<g display="none">
	<path display="inline" fill="#7ED2F6" d="M25.635,13.5c0.702-0.876,1.008-2.02,0.802-3.147c-0.215-1.177-0.938-2.164-1.957-2.726
		c0.333-1.164,0.114-2.438-0.628-3.428c-0.737-0.979-1.906-1.562-3.134-1.562c-0.174,0-0.346,0.005-0.517,0.028
		c-0.603-1.413-2.007-2.382-3.603-2.382c-1.263,0-2.385,0.604-3.099,1.532c-0.717-0.928-1.842-1.532-3.102-1.532
		c-1.594,0-3,0.969-3.6,2.385C6.625,2.648,6.45,2.637,6.276,2.637c-1.244,0-2.385,0.57-3.129,1.564
		c-0.744,0.988-0.96,2.266-0.628,3.426C1.5,8.189,0.776,9.176,0.564,10.355c-0.207,1.127,0.096,2.273,0.797,3.146
		c-0.701,0.872-1.004,2.02-0.797,3.146c0.212,1.176,0.936,2.164,1.955,2.726c-0.333,1.164-0.114,2.438,0.627,3.432
		c0.733,0.979,1.907,1.562,3.132,1.562c0.174,0,0.346-0.011,0.52-0.035c0.603,1.423,2.005,2.387,3.6,2.387
		c1.26,0,2.385-0.603,3.102-1.533c0.714,0.931,1.836,1.533,3.099,1.533c1.596,0,3.002-0.969,3.603-2.387
		c0.174,0.024,0.348,0.035,0.522,0.035c1.242,0,2.384-0.572,3.128-1.565c0.742-0.99,0.961-2.269,0.628-3.429
		c1.02-0.561,1.744-1.549,1.957-2.725C26.643,15.517,26.337,14.371,25.635,13.5 M12.688,22.806c0,1.262-1.028,2.293-2.291,2.293
		c-1.097,0-2.042-0.78-2.251-1.854l-0.01-0.054c-0.021-0.129-0.034-0.256-0.034-0.385c0-0.376,0.092-0.735,0.259-1.055
		c0.607,0.371,1.306,0.572,2.041,0.572v-1.618c-0.613,0-1.188-0.234-1.621-0.674c-0.432-0.432-0.672-1.006-0.672-1.616h-1.62
		c0,0.788,0.237,1.549,0.673,2.192c-0.426,0.625-0.66,1.36-0.674,2.134c-0.069,0.002-0.139,0.006-0.209,0.006
		c-0.73,0-1.398-0.333-1.836-0.918c-0.539-0.715-0.608-1.687-0.176-2.478l0.192-0.351l-0.327-0.748l-0.365-0.104
		c-0.838-0.243-1.457-0.934-1.611-1.793c-0.14-0.748,0.112-1.518,0.654-2.045h3.76c0.155,0.735,0.518,1.408,1.061,1.954
		c0.708,0.707,1.689,1.146,2.767,1.146h2.291V22.806z M12.688,15.791h-2.291c-1.223,0-2.223-0.958-2.29-2.163v-0.011
		c-0.002-0.036-0.005-0.078-0.005-0.116c0-0.613,0.24-1.19,0.674-1.62l-1.146-1.145c-0.543,0.544-0.906,1.217-1.061,1.954H2.807
		c-0.539-0.529-0.791-1.294-0.652-2.045C2.31,9.783,2.929,9.095,3.767,8.848l0.365-0.104l0.327-0.743l-0.192-0.35
		c-0.432-0.789-0.363-1.764,0.173-2.48c0.438-0.582,1.108-0.916,1.836-0.916c0.072,0,0.143,0.001,0.212,0.009
		C6.502,5.036,6.736,5.77,7.162,6.398C6.726,7.037,6.489,7.792,6.489,8.586l1.62,0.001c0-0.614,0.24-1.192,0.672-1.622
		c0.433-0.432,1.008-0.67,1.621-0.67V4.678c-0.735,0-1.433,0.197-2.041,0.573C8.195,4.928,8.103,4.568,8.103,4.196
		c0-0.126,0.013-0.257,0.034-0.381l0.01-0.059c0.208-1.073,1.154-1.854,2.251-1.854c1.263,0,2.291,1.03,2.291,2.294V15.791z
		 M14.308,4.196c0-1.264,1.028-2.294,2.291-2.294c1.098,0,2.043,0.78,2.254,1.854l0.008,0.056c0.021,0.124,0.033,0.258,0.033,0.384
		c0,0.372-0.089,0.732-0.258,1.055c-0.607-0.376-1.311-0.573-2.041-0.573v1.617c0.614,0,1.191,0.238,1.622,0.67
		c0.433,0.429,0.669,1.008,0.671,1.622l1.619-0.001c0-0.793-0.233-1.549-0.672-2.188c0.429-0.631,0.661-1.364,0.676-2.138
		c0.067-0.004,0.139-0.01,0.207-0.01c0.731,0,1.401,0.337,1.84,0.92c0.537,0.717,0.606,1.691,0.175,2.476L22.539,8l0.162,0.367
		l0.163,0.378l0.363,0.104c0.84,0.247,1.463,0.935,1.616,1.795c0.137,0.752-0.116,1.517-0.656,2.046H20.43
		c-0.153-0.736-0.517-1.41-1.062-1.954c-0.712-0.708-1.69-1.148-2.77-1.148h-2.291V4.196z M24.844,16.353
		c-0.153,0.862-0.776,1.549-1.616,1.794l-0.361,0.106l-0.327,0.748l0.193,0.351c0.432,0.785,0.362,1.76-0.175,2.478
		c-0.437,0.585-1.108,0.918-1.834,0.918c-0.072,0-0.143-0.004-0.213-0.012c-0.015-0.771-0.247-1.505-0.676-2.128
		c0.438-0.644,0.672-1.404,0.672-2.192h-1.619c0,0.61-0.238,1.185-0.671,1.616c-0.431,0.439-1.008,0.674-1.622,0.674v1.618
		c0.73,0,1.434-0.201,2.041-0.572c0.169,0.319,0.258,0.679,0.258,1.055c0,0.129-0.012,0.256-0.033,0.385l-0.008,0.054
		c-0.211,1.074-1.156,1.854-2.254,1.854c-1.263,0-2.291-1.031-2.291-2.293V11.208h2.291c1.226,0,2.226,0.958,2.289,2.164
		c0,0,0,0.006,0,0.012c0.006,0.04,0.006,0.078,0.006,0.118c0,0.61-0.239,1.188-0.672,1.621l1.146,1.143
		c0.545-0.546,0.908-1.219,1.062-1.954h3.76C24.728,14.838,24.98,15.604,24.844,16.353"/>
</g>
<g display="none">
	<g display="inline">
		<g>
			<g>
				<path fill="#0D4B9F" d="M25.635,13.5c0.702-0.876,1.008-2.02,0.802-3.147c-0.215-1.177-0.938-2.164-1.957-2.726
					c0.333-1.164,0.114-2.438-0.628-3.428c-0.737-0.979-1.906-1.562-3.134-1.562c-0.174,0-0.346,0.005-0.517,0.028
					c-0.603-1.413-2.007-2.382-3.603-2.382c-1.263,0-2.385,0.604-3.099,1.532c-0.717-0.928-1.842-1.532-3.102-1.532
					c-1.594,0-3,0.969-3.6,2.385C6.625,2.648,6.45,2.637,6.276,2.637c-1.244,0-2.385,0.57-3.129,1.564
					c-0.744,0.988-0.96,2.266-0.628,3.426C1.5,8.189,0.776,9.176,0.564,10.355c-0.207,1.127,0.096,2.273,0.797,3.146
					c-0.701,0.872-1.004,2.02-0.797,3.146c0.212,1.176,0.936,2.164,1.955,2.726c-0.333,1.164-0.114,2.438,0.627,3.432
					c0.733,0.979,1.907,1.562,3.132,1.562c0.174,0,0.346-0.011,0.52-0.035c0.603,1.423,2.005,2.387,3.6,2.387
					c1.26,0,2.385-0.603,3.102-1.533c0.714,0.931,1.836,1.533,3.099,1.533c1.596,0,3.002-0.969,3.603-2.387
					c0.174,0.024,0.348,0.035,0.522,0.035c1.242,0,2.384-0.572,3.128-1.565c0.742-0.99,0.961-2.269,0.628-3.429
					c1.02-0.561,1.744-1.549,1.957-2.725C26.643,15.517,26.337,14.371,25.635,13.5 M12.688,22.806c0,1.262-1.028,2.293-2.291,2.293
					c-1.097,0-2.042-0.78-2.251-1.854l-0.01-0.054c-0.021-0.129-0.034-0.256-0.034-0.385c0-0.376,0.092-0.735,0.259-1.055
					c0.607,0.371,1.306,0.572,2.041,0.572v-1.618c-0.613,0-1.188-0.234-1.621-0.674c-0.432-0.432-0.672-1.006-0.672-1.616h-1.62
					c0,0.788,0.237,1.549,0.673,2.192c-0.426,0.625-0.66,1.36-0.674,2.134c-0.069,0.002-0.139,0.006-0.209,0.006
					c-0.73,0-1.398-0.333-1.836-0.918c-0.539-0.715-0.608-1.687-0.176-2.478l0.192-0.351l-0.327-0.748l-0.365-0.104
					c-0.838-0.243-1.457-0.934-1.611-1.793c-0.14-0.748,0.112-1.518,0.654-2.045h3.76c0.155,0.735,0.518,1.408,1.061,1.954
					c0.708,0.707,1.689,1.146,2.767,1.146h2.291V22.806z M12.688,15.791h-2.291c-1.223,0-2.223-0.958-2.29-2.163v-0.011
					c-0.002-0.036-0.005-0.078-0.005-0.116c0-0.613,0.24-1.19,0.674-1.62l-1.146-1.145c-0.543,0.544-0.906,1.217-1.061,1.954H2.807
					c-0.539-0.529-0.791-1.294-0.652-2.045C2.31,9.783,2.929,9.095,3.767,8.848l0.365-0.104l0.327-0.743l-0.192-0.35
					c-0.432-0.789-0.363-1.764,0.173-2.48c0.438-0.582,1.108-0.916,1.836-0.916c0.072,0,0.143,0.001,0.212,0.009
					C6.502,5.036,6.736,5.77,7.162,6.398C6.726,7.037,6.489,7.792,6.489,8.586l1.62,0.001c0-0.614,0.24-1.192,0.672-1.622
					c0.433-0.432,1.008-0.67,1.621-0.67V4.678c-0.735,0-1.433,0.197-2.041,0.573C8.195,4.928,8.103,4.568,8.103,4.196
					c0-0.126,0.013-0.257,0.034-0.381l0.01-0.059c0.208-1.073,1.154-1.854,2.251-1.854c1.263,0,2.291,1.03,2.291,2.294V15.791z
					 M14.308,4.196c0-1.264,1.028-2.294,2.291-2.294c1.098,0,2.043,0.78,2.254,1.854l0.008,0.056
					c0.021,0.124,0.033,0.258,0.033,0.384c0,0.372-0.089,0.732-0.258,1.055c-0.607-0.376-1.311-0.573-2.041-0.573v1.617
					c0.614,0,1.191,0.238,1.622,0.67c0.433,0.429,0.669,1.008,0.671,1.622l1.619-0.001c0-0.793-0.233-1.549-0.672-2.188
					c0.429-0.631,0.661-1.364,0.676-2.138c0.067-0.004,0.139-0.01,0.207-0.01c0.731,0,1.401,0.337,1.84,0.92
					c0.537,0.717,0.606,1.691,0.175,2.476L22.539,8l0.162,0.367l0.163,0.378l0.363,0.104c0.84,0.247,1.463,0.935,1.616,1.795
					c0.137,0.752-0.116,1.517-0.656,2.046H20.43c-0.153-0.736-0.517-1.41-1.062-1.954c-0.712-0.708-1.69-1.148-2.77-1.148h-2.291
					V4.196z M24.844,16.353c-0.153,0.862-0.776,1.549-1.616,1.794l-0.361,0.106l-0.327,0.748l0.193,0.351
					c0.432,0.785,0.362,1.76-0.175,2.478c-0.437,0.585-1.108,0.918-1.834,0.918c-0.072,0-0.143-0.004-0.213-0.012
					c-0.015-0.771-0.247-1.505-0.676-2.128c0.438-0.644,0.672-1.404,0.672-2.192h-1.619c0,0.61-0.238,1.185-0.671,1.616
					c-0.431,0.439-1.008,0.674-1.622,0.674v1.618c0.73,0,1.434-0.201,2.041-0.572c0.169,0.319,0.258,0.679,0.258,1.055
					c0,0.129-0.012,0.256-0.033,0.385l-0.008,0.054c-0.211,1.074-1.156,1.854-2.254,1.854c-1.263,0-2.291-1.031-2.291-2.293V11.208
					h2.291c1.226,0,2.226,0.958,2.289,2.164c0,0,0,0.006,0,0.012c0.006,0.04,0.006,0.078,0.006,0.118
					c0,0.61-0.239,1.188-0.672,1.621l1.146,1.143c0.545-0.546,0.908-1.219,1.062-1.954h3.76
					C24.728,14.838,24.98,15.604,24.844,16.353"/>
			</g>
		</g>
	</g>
</g>
<g display="none">
	<g display="inline">
		<g>
			<g>
				<path fill="#80298F" d="M25.635,13.499c0.702-0.875,1.008-2.019,0.802-3.146c-0.215-1.177-0.938-2.164-1.957-2.727
					c0.333-1.164,0.114-2.437-0.628-3.427c-0.737-0.979-1.906-1.563-3.134-1.563c-0.174,0-0.346,0.005-0.517,0.028
					c-0.603-1.413-2.007-2.381-3.603-2.381c-1.263,0-2.385,0.603-3.099,1.532c-0.717-0.929-1.842-1.532-3.102-1.532
					c-1.594,0-3,0.969-3.6,2.384C6.625,2.648,6.45,2.636,6.276,2.636c-1.244,0-2.385,0.57-3.129,1.564
					c-0.744,0.988-0.96,2.266-0.628,3.425C1.5,8.188,0.776,9.176,0.564,10.354c-0.207,1.128,0.096,2.273,0.797,3.146
					c-0.701,0.872-1.004,2.019-0.797,3.145c0.212,1.177,0.936,2.164,1.955,2.726c-0.333,1.165-0.114,2.437,0.627,3.432
					c0.733,0.979,1.907,1.562,3.132,1.562c0.174,0,0.346-0.011,0.52-0.034c0.603,1.423,2.005,2.387,3.6,2.387
					c1.26,0,2.385-0.603,3.102-1.534c0.714,0.932,1.836,1.534,3.099,1.534c1.596,0,3.002-0.969,3.603-2.387
					c0.174,0.023,0.348,0.034,0.522,0.034c1.242,0,2.384-0.571,3.128-1.565c0.742-0.991,0.961-2.268,0.628-3.428
					c1.02-0.562,1.744-1.549,1.957-2.726C26.643,15.516,26.337,14.371,25.635,13.499 M12.688,22.806
					c0,1.261-1.028,2.292-2.291,2.292c-1.097,0-2.042-0.78-2.251-1.854l-0.01-0.054c-0.021-0.128-0.034-0.255-0.034-0.384
					c0-0.376,0.092-0.735,0.259-1.055c0.607,0.371,1.306,0.571,2.041,0.571v-1.617c-0.613,0-1.188-0.235-1.621-0.675
					c-0.432-0.431-0.672-1.006-0.672-1.615h-1.62c0,0.787,0.237,1.549,0.673,2.192c-0.426,0.625-0.66,1.359-0.674,2.134
					c-0.069,0.002-0.139,0.006-0.209,0.006c-0.73,0-1.398-0.334-1.836-0.918c-0.539-0.715-0.608-1.688-0.176-2.479l0.192-0.35
					l-0.327-0.749l-0.365-0.104c-0.838-0.243-1.457-0.934-1.611-1.794c-0.14-0.748,0.112-1.517,0.654-2.044h3.76
					c0.155,0.734,0.518,1.407,1.061,1.954c0.708,0.707,1.689,1.146,2.767,1.146h2.291V22.806z M12.688,15.79h-2.291
					c-1.223,0-2.223-0.958-2.29-2.162v-0.011c-0.002-0.036-0.005-0.078-0.005-0.116c0-0.613,0.24-1.19,0.674-1.621l-1.146-1.145
					c-0.543,0.544-0.906,1.217-1.061,1.954H2.807c-0.539-0.53-0.791-1.294-0.652-2.045C2.31,9.783,2.929,9.095,3.767,8.848
					l0.365-0.104l0.327-0.743L4.266,7.651C3.834,6.862,3.903,5.888,4.439,5.17c0.438-0.581,1.108-0.916,1.836-0.916
					c0.072,0,0.143,0.001,0.212,0.009C6.502,5.035,6.736,5.77,7.162,6.398C6.726,7.036,6.489,7.792,6.489,8.586l1.62,0.001
					c0-0.613,0.24-1.192,0.672-1.622c0.433-0.432,1.008-0.67,1.621-0.67V4.678c-0.735,0-1.433,0.197-2.041,0.573
					C8.195,4.928,8.103,4.567,8.103,4.196c0-0.126,0.013-0.257,0.034-0.382l0.01-0.059c0.208-1.073,1.154-1.854,2.251-1.854
					c1.263,0,2.291,1.03,2.291,2.294V15.79z M14.308,4.196c0-1.264,1.028-2.294,2.291-2.294c1.098,0,2.043,0.781,2.254,1.854
					l0.008,0.057c0.021,0.124,0.033,0.258,0.033,0.384c0,0.372-0.089,0.732-0.258,1.055c-0.607-0.376-1.311-0.573-2.041-0.573v1.617
					c0.614,0,1.191,0.238,1.622,0.67c0.433,0.429,0.669,1.008,0.671,1.622l1.619-0.001c0-0.794-0.233-1.55-0.672-2.188
					c0.429-0.631,0.661-1.364,0.676-2.138c0.067-0.005,0.139-0.011,0.207-0.011c0.731,0,1.401,0.337,1.84,0.92
					c0.537,0.717,0.606,1.691,0.175,2.476L22.539,8l0.162,0.367l0.163,0.378l0.363,0.104c0.84,0.248,1.463,0.935,1.616,1.795
					c0.137,0.752-0.116,1.517-0.656,2.046H20.43c-0.153-0.736-0.517-1.41-1.062-1.954c-0.712-0.708-1.69-1.148-2.77-1.148h-2.291
					V4.196z M24.844,16.353c-0.153,0.862-0.776,1.549-1.616,1.794l-0.361,0.105l-0.327,0.749l0.193,0.35
					c0.432,0.786,0.362,1.76-0.175,2.479c-0.437,0.584-1.108,0.918-1.834,0.918c-0.072,0-0.143-0.004-0.213-0.012
					c-0.015-0.771-0.247-1.506-0.676-2.128c0.438-0.644,0.672-1.405,0.672-2.192h-1.619c0,0.609-0.238,1.185-0.671,1.615
					c-0.431,0.439-1.008,0.675-1.622,0.675v1.617c0.73,0,1.434-0.2,2.041-0.571c0.169,0.319,0.258,0.679,0.258,1.055
					c0,0.129-0.012,0.256-0.033,0.384l-0.008,0.054c-0.211,1.074-1.156,1.854-2.254,1.854c-1.263,0-2.291-1.031-2.291-2.292V11.208
					h2.291c1.226,0,2.226,0.958,2.289,2.164c0,0,0,0.006,0,0.012c0.006,0.04,0.006,0.078,0.006,0.118
					c0,0.609-0.239,1.187-0.672,1.62l1.146,1.144c0.545-0.547,0.908-1.22,1.062-1.954h3.76
					C24.728,14.838,24.98,15.604,24.844,16.353"/>
			</g>
		</g>
	</g>
</g>
<g display="none">
	<path display="inline" fill="#EFF0F0" d="M25.818,13.498c0.709-0.885,1.018-2.044,0.811-3.185c-0.217-1.194-0.949-2.194-1.98-2.764
		c0.338-1.178,0.115-2.468-0.637-3.471c-0.746-0.992-1.932-1.584-3.172-1.584c-0.178,0-0.352,0.013-0.525,0.031
		c-0.609-1.434-2.033-2.412-3.645-2.412c-1.279,0-2.416,0.609-3.141,1.551c-0.725-0.941-1.864-1.551-3.142-1.551
		c-1.611,0-3.037,0.979-3.646,2.416C6.568,2.507,6.392,2.494,6.215,2.494c-1.26,0-2.416,0.581-3.171,1.586
		C2.292,5.081,2.072,6.375,2.408,7.553c-1.031,0.565-1.764,1.565-1.979,2.76c-0.21,1.143,0.099,2.302,0.808,3.185
		c-0.709,0.885-1.018,2.043-0.808,3.186c0.215,1.191,0.947,2.193,1.98,2.762c-0.338,1.18-0.116,2.467,0.636,3.473
		c0.744,0.992,1.931,1.584,3.171,1.584c0.177,0,0.352-0.014,0.525-0.031c0.61,1.434,2.034,2.408,3.646,2.408
		c1.277,0,2.417-0.607,3.142-1.549c0.725,0.941,1.861,1.549,3.141,1.549c1.611,0,3.037-0.977,3.645-2.414
		c0.176,0.023,0.352,0.035,0.527,0.035c1.262,0,2.416-0.58,3.17-1.584c0.752-1.004,0.975-2.297,0.637-3.473
		c1.031-0.566,1.766-1.568,1.98-2.762C26.836,15.541,26.527,14.381,25.818,13.498"/>
	<path display="inline" fill="#0D4B9F" d="M25.818,13.498c0.709-0.889,1.018-2.048,0.811-3.187c-0.217-1.192-0.951-2.192-1.98-2.762
		c0.336-1.178,0.115-2.468-0.637-3.471c-0.746-0.992-1.932-1.584-3.174-1.584c-0.176,0-0.35,0.008-0.523,0.031
		c-0.609-1.432-2.033-2.412-3.646-2.412c-1.279,0-2.414,0.609-3.139,1.551c-0.725-0.941-1.864-1.551-3.142-1.551
		c-1.613,0-3.037,0.98-3.646,2.416C6.568,2.507,6.392,2.494,6.215,2.494c-1.26,0-2.416,0.581-3.169,1.586
		C2.292,5.081,2.072,6.375,2.408,7.549C1.377,8.118,0.645,9.118,0.43,10.313c-0.21,1.141,0.097,2.302,0.808,3.185
		c-0.711,0.885-1.018,2.047-0.808,3.186c0.215,1.191,0.947,2.193,1.98,2.762c-0.338,1.18-0.116,2.467,0.636,3.473
		c0.742,0.992,1.931,1.584,3.171,1.584c0.177,0,0.352-0.014,0.525-0.037c0.61,1.439,2.032,2.418,3.646,2.418
		c1.277,0,2.417-0.611,3.142-1.553c0.725,0.941,1.859,1.553,3.139,1.553c1.613,0,3.039-0.98,3.646-2.418
		c0.176,0.023,0.352,0.037,0.527,0.037c1.262,0,2.416-0.582,3.17-1.586c0.752-1.004,0.973-2.297,0.637-3.473
		c1.029-0.566,1.766-1.568,1.98-2.76C26.836,15.541,26.527,14.381,25.818,13.498 M12.709,22.92c0,1.277-1.04,2.324-2.321,2.324
		c-1.109,0-2.068-0.791-2.278-1.879l-0.011-0.055c-0.021-0.133-0.033-0.26-0.033-0.391c0-0.377,0.092-0.742,0.261-1.066
		c0.615,0.377,1.323,0.578,2.067,0.578v-1.639c-0.621,0-1.204-0.236-1.643-0.68c-0.438-0.439-0.68-1.02-0.68-1.639H6.43
		c0,0.799,0.241,1.568,0.682,2.219c-0.432,0.635-0.668,1.379-0.684,2.162c-0.069,0.004-0.139,0.006-0.211,0.006
		c-0.738,0-1.416-0.338-1.859-0.93c-0.546-0.725-0.615-1.709-0.178-2.508l0.194-0.355l-0.333-0.756l-0.367-0.105
		c-0.849-0.248-1.475-0.945-1.631-1.816c-0.142-0.758,0.113-1.537,0.661-2.074h3.809c0.156,0.746,0.524,1.43,1.073,1.98
		c0.719,0.717,1.711,1.162,2.802,1.162h2.321V22.92z M12.709,15.818h-2.321c-1.238,0-2.251-0.971-2.318-2.194v-0.008
		c-0.002-0.037-0.004-0.08-0.004-0.119c0-0.621,0.242-1.205,0.682-1.642l-1.161-1.157c-0.549,0.551-0.917,1.233-1.073,1.979H2.702
		c-0.546-0.537-0.801-1.31-0.661-2.071c0.158-0.873,0.784-1.569,1.633-1.819l0.367-0.104L4.374,7.93L4.18,7.573
		C3.742,6.775,3.81,5.789,4.355,5.063c0.443-0.591,1.121-0.93,1.859-0.93c0.072,0,0.144,0.004,0.213,0.011
		C6.443,4.925,6.68,5.669,7.111,6.303C6.671,6.952,6.43,7.718,6.43,8.521l1.642,0.002c0-0.621,0.242-1.207,0.68-1.643
		c0.438-0.438,1.021-0.678,1.643-0.678V4.563c-0.744,0-1.452,0.2-2.067,0.58c-0.169-0.329-0.261-0.69-0.261-1.069
		c0-0.129,0.013-0.259,0.033-0.386L8.109,3.63c0.21-1.088,1.169-1.878,2.278-1.878c1.281,0,2.321,1.044,2.321,2.322V15.818z
		 M14.348,4.074c0-1.278,1.041-2.322,2.32-2.322c1.111,0,2.068,0.79,2.279,1.878l0.012,0.057c0.02,0.125,0.031,0.259,0.031,0.388
		c0,0.379-0.09,0.74-0.26,1.069c-0.615-0.38-1.328-0.58-2.066-0.58v1.639c0.621,0,1.203,0.24,1.643,0.678
		c0.438,0.436,0.678,1.021,0.68,1.643l1.637-0.002c0-0.803-0.236-1.568-0.68-2.218c0.434-0.636,0.672-1.38,0.684-2.162
		c0.068-0.006,0.143-0.01,0.211-0.01c0.742,0,1.42,0.341,1.863,0.932c0.545,0.727,0.615,1.713,0.178,2.509l-0.197,0.356l0.166,0.371
		l0.164,0.384l0.371,0.104c0.85,0.25,1.477,0.946,1.635,1.817c0.137,0.763-0.117,1.536-0.666,2.073h-3.807
		c-0.156-0.746-0.523-1.428-1.074-1.979c-0.719-0.717-1.711-1.163-2.803-1.163h-2.32V4.074z M25.018,16.387
		c-0.158,0.875-0.785,1.57-1.635,1.818l-0.369,0.107l-0.33,0.756l0.195,0.355c0.438,0.795,0.367,1.781-0.178,2.508
		c-0.441,0.592-1.119,0.93-1.859,0.93c-0.07,0-0.143-0.002-0.215-0.01c-0.012-0.781-0.25-1.525-0.684-2.158
		c0.443-0.65,0.68-1.42,0.68-2.219h-1.637c0,0.619-0.242,1.199-0.68,1.639c-0.439,0.443-1.021,0.68-1.643,0.68v1.639
		c0.738,0,1.451-0.201,2.066-0.578c0.17,0.324,0.26,0.689,0.26,1.066c0,0.131-0.012,0.258-0.031,0.391l-0.012,0.055
		c-0.211,1.088-1.168,1.879-2.279,1.879c-1.279,0-2.32-1.047-2.32-2.324V11.174h2.32c1.238,0,2.25,0.972,2.318,2.193l0.002,0.012
		c0.002,0.041,0.002,0.08,0.002,0.119c0,0.62-0.242,1.204-0.68,1.643l1.16,1.156c0.551-0.551,0.918-1.234,1.074-1.98h3.811
		C24.9,14.854,25.154,15.629,25.018,16.387"/>
</g>
<g display="none">
	<g display="inline">
		<path fill="#7ED2F6" d="M9.521,0.5v0.015L4.078,5.947V26.5h18.844v-26H9.521z M20.756,24.333H6.244V8.113h5.443V2.665h9.068
			V24.333z"/>
		<rect x="10.933" y="11.367" fill="#7ED2F6" width="8.214" height="1.806"/>
		<rect x="10.933" y="15.205" fill="#7ED2F6" width="8.214" height="1.806"/>
		<rect x="10.933" y="19.064" fill="#7ED2F6" width="8.214" height="1.805"/>
		<circle fill="#7ED2F6" cx="8.805" cy="12.268" r="0.901"/>
		<circle fill="#7ED2F6" cx="8.805" cy="16.101" r="0.901"/>
		<circle fill="#7ED2F6" cx="8.805" cy="19.952" r="0.9"/>
	</g>
</g>
<g display="none">
	
		<polygon display="inline" fill="none" stroke="#7ED2F6" stroke-width="2" stroke-linecap="round" stroke-linejoin="round" stroke-miterlimit="10" points="
		16.648,23.533 9.958,25.5 9.958,10.942 16.648,8.975 	"/>
	
		<polygon display="inline" fill="none" stroke="#7ED2F6" stroke-width="2" stroke-linecap="round" stroke-linejoin="round" stroke-miterlimit="10" points="
		16.648,23.533 8.778,19.207 8.778,4.646 16.648,8.975 	"/>
	
		<polygon display="inline" fill="none" stroke="#7ED2F6" stroke-width="2" stroke-linecap="round" stroke-linejoin="round" stroke-miterlimit="10" points="
		18.223,16.06 8.778,19.207 8.778,4.646 18.223,1.5 	"/>
</g>
<g display="none">
	<path display="inline" fill="#80298F" d="M26.227,21.37l-5.707-3.362c-0.297-0.152-0.732-0.083-0.967,0.152l-1.68,1.679
		c-0.234,0.235-0.7,0.432-1.033,0.436c0,0-2.145,0.024-6.135-3.966c-3.989-3.989-3.97-6.142-3.97-6.142
		c0.004-0.333,0.199-0.798,0.434-1.033L8.6,7.703c0.235-0.236,0.314-0.675,0.175-0.978L5.626,0.804
		c-0.139-0.302-0.445-0.358-0.68-0.123L1.042,4.576C0.807,4.81,0.578,5.273,0.534,5.603c0,0-0.761,5.69,7.212,13.666
		c7.976,7.974,13.664,7.212,13.664,7.212c0.33-0.045,0.793-0.272,1.028-0.509l3.898-3.899C26.572,21.838,26.522,21.521,26.227,21.37
		z"/>
	<path display="inline" fill="#80298F" d="M12.294,10.694c0.837,0.209,1.63,0.636,2.284,1.29c0.659,0.658,1.086,1.457,1.293,2.298
		h1.594c-0.166-1.304-0.748-2.509-1.688-3.454c-0.949-0.956-2.167-1.543-3.482-1.701V10.694z"/>
	<path display="inline" fill="#80298F" d="M24.248,14.282h1.874C25.985,7.134,19.446,0.608,12.295,0.5l-0.001,1.832
		C18.708,2.688,23.863,7.85,24.248,14.282z"/>
	<path display="inline" fill="#80298F" d="M19.92,14.282h1.877c-0.375-5.084-4.438-9.151-9.503-9.5v1.892
		C16.328,7.016,19.554,10.24,19.92,14.282z"/>
</g>
<g display="none">
	<g display="inline">
		<polygon fill="#80298F" points="16.603,19.104 10.404,19.104 9.785,19.562 1.545,25.63 25.459,25.63 17.225,19.562 		"/>
		<polygon fill="#80298F" points="26.498,10.944 26.491,10.937 26.483,10.935 13.507,1.37 0.505,10.944 0.502,10.944 0.5,12.747 
			0.503,12.743 0.503,24.603 8.567,18.663 8.569,18.662 0.517,12.734 2.999,10.944 3.011,10.935 13.505,3.163 24.091,10.935 
			24.104,10.944 26.478,12.748 18.446,18.668 18.445,18.668 26.497,24.601 26.497,12.763 26.498,12.764 26.5,10.944 		"/>
		<polygon fill="#80298F" points="26.495,10.935 26.483,10.935 26.491,10.937 		"/>
	</g>
</g>
<path display="none" fill="#80298F" d="M24.241,18.063c-0.362-0.742-0.956-1.432-1.766-2.046c-0.715-0.545-1.581-1.017-2.574-1.407
	c-0.933-0.364-1.955-0.647-3.038-0.842c-0.758-0.134-1.541-0.219-2.335-0.259l0.211-4.117c1.937-0.512,3.367-2.271,3.367-4.368
	c0-2.499-2.027-4.525-4.525-4.525c-2.5,0-4.524,2.026-4.524,4.525c0,2.08,1.406,3.827,3.318,4.355l0.211,4.122
	c-0.834,0.036-1.656,0.127-2.45,0.267c-1.082,0.193-2.104,0.478-3.038,0.842c-0.993,0.391-1.858,0.862-2.574,1.407
	c-0.809,0.615-1.403,1.304-1.767,2.046c-0.383,0.781-0.486,1.588-0.311,2.39c-0.001,0.003-0.004,0.003-0.004,0.003
	c0,0.003,0,0.004,0.001,0.005l0.058,0.265l0.057,0.258c0.03,0.145,0.074,0.291,0.129,0.449l0.005,0.016L2.7,21.47
	c0.049,0.136,0.106,0.272,0.18,0.422l0.01,0.021l0.015,0.032c0.068,0.134,0.147,0.274,0.239,0.416l0.015,0.022l0.022,0.035
	c0.086,0.133,0.185,0.269,0.293,0.401l0.015,0.018l0.03,0.039c0.108,0.133,0.228,0.265,0.356,0.396
	c0.02,0.021,0.041,0.041,0.061,0.063c0.133,0.13,0.272,0.258,0.416,0.38l0.035,0.029l0.024,0.021
	c0.158,0.132,0.323,0.259,0.488,0.378l0.039,0.027l0.018,0.011c0.188,0.133,0.372,0.25,0.559,0.365
	c0.055,0.033,0.109,0.062,0.165,0.095l0.019,0.013l0.046,0.025c0.03,0.016,0.058,0.032,0.088,0.051
	c0.23,0.127,0.476,0.251,0.73,0.369l0.019,0.009l0.038,0.016c0.248,0.115,0.501,0.221,0.754,0.317l0.021,0.007l0.035,0.014
	c0.265,0.1,0.543,0.197,0.83,0.286l0.029,0.006l0.03,0.011c0.288,0.088,0.585,0.166,0.884,0.24l0.043,0.01
	c0.328,0.078,0.653,0.146,0.975,0.203l0.015,0.002c0.169,0.03,0.335,0.049,0.502,0.074c0.01,0.001,0.019,0.002,0.028,0.004
	c0.167,0.024,0.335,0.054,0.502,0.073c0.018,0.003,0.035,0.004,0.054,0.007c0.339,0.038,0.686,0.068,1.029,0.088l0.055,0.004
	c0.371,0.02,0.739,0.03,1.094,0.03c0.185,0,0.368-0.011,0.552-0.015c0.006,0,0.015,0,0.022,0c0.179-0.006,0.361-0.006,0.539-0.017
	l0.019-0.002c0.351-0.02,0.703-0.05,1.049-0.089l0.045-0.006c0.326-0.037,0.66-0.088,0.991-0.143l0.082-0.018
	c0.322-0.056,0.636-0.121,0.938-0.193l0.027-0.007l0.028-0.007c0.287-0.067,0.58-0.148,0.871-0.235
	c0.041-0.014,0.081-0.026,0.123-0.04l0.091-0.029c0.222-0.073,0.417-0.14,0.597-0.205c0.089-0.033,0.178-0.067,0.266-0.102
	c0.175-0.07,0.352-0.144,0.524-0.222l0.054-0.022c0.058-0.026,0.119-0.053,0.175-0.08c0.228-0.104,0.44-0.213,0.637-0.32
	c0.08-0.045,0.161-0.09,0.239-0.135l0.043-0.027l0.065-0.035c0.12-0.073,0.237-0.146,0.351-0.222l0.012-0.008
	c0.118-0.077,0.23-0.156,0.341-0.238l0.034-0.025l0.02-0.014c0.127-0.097,0.253-0.196,0.376-0.299l0.021-0.017l0.036-0.029
	c0.118-0.102,0.238-0.211,0.354-0.324l0.047-0.048l0.02-0.018c0.107-0.111,0.203-0.213,0.291-0.313l0.014-0.015l0.015-0.016
	c0.088-0.105,0.177-0.215,0.267-0.341c0.022-0.03,0.047-0.064,0.07-0.096c0.023-0.034,0.048-0.067,0.07-0.104
	c0.028-0.042,0.056-0.085,0.083-0.128c0.02-0.033,0.041-0.067,0.06-0.102c0.026-0.044,0.053-0.092,0.078-0.137
	c0.021-0.04,0.037-0.067,0.051-0.096c0.026-0.051,0.05-0.102,0.073-0.151l0.014-0.026c0.007-0.021,0.017-0.038,0.025-0.058
	c0.031-0.07,0.06-0.144,0.087-0.217l0.014-0.036l0.008-0.027c0.021-0.057,0.04-0.114,0.058-0.17l0.007-0.022l0.012-0.042
	c0.023-0.076,0.044-0.152,0.058-0.23l0.058-0.256l0.057-0.256l-0.003-0.001c0.001-0.001,0.001-0.002,0.001-0.005
	c0-0.002,0.004-0.002,0.004-0.005c0-0.002,0.001-0.004,0.001-0.005c0-0.003-0.002-0.003-0.003-0.004
	C24.728,19.644,24.623,18.845,24.241,18.063z M11.31,4.926c-0.632-0.233-0.93-1.005-0.664-1.723c0.265-0.72,0.993-1.11,1.625-0.878
	c0.633,0.234,0.931,1.005,0.665,1.723C12.67,4.768,11.944,5.161,11.31,4.926z M12.656,23.438L12.656,23.438l0.005-0.207
	L12.656,23.438z M21.606,19.598c-0.046,0.17-0.106,0.336-0.181,0.491c-0.263,0.552-0.708,1.064-1.326,1.526
	c-0.652,0.488-1.463,0.895-2.406,1.203c-1.003,0.329-2.099,0.534-3.261,0.606l-0.087-2.578l-0.001-0.015h-0.016h-1.594h-0.014v0.015
	l-0.081,2.582c-1.169-0.066-2.276-0.268-3.289-0.596c-0.953-0.308-1.772-0.713-2.434-1.204c-0.624-0.464-1.075-0.979-1.341-1.532
	c-0.077-0.16-0.139-0.33-0.184-0.505c-0.001-0.003-0.001-0.005-0.002-0.009l0.001-0.001L5.39,19.553
	c-0.001-0.034-0.001-0.068-0.001-0.102c0,0,0-0.009,0-0.019c0-0.007,0-0.016,0-0.016s0-0.006,0-0.011
	c0.001-0.003,0.001-0.007,0.001-0.007l0.001-0.021c0-0.018,0.001-0.031,0.001-0.048c0.002-0.037,0.004-0.078,0.009-0.118
	c0,0,0-0.005,0-0.012c0.001-0.005,0.002-0.013,0.002-0.013c0.003-0.038,0.007-0.066,0.012-0.093
	c0.005-0.038,0.011-0.072,0.017-0.107h3.504h0.015l-0.001-0.016l0.113-1.264l0.004-0.018H9.05H6.029l0.019-0.026
	c0.024-0.031,0.047-0.061,0.07-0.089c0.023-0.027,0.046-0.056,0.069-0.082c0.03-0.033,0.056-0.063,0.081-0.093
	c0.028-0.028,0.055-0.059,0.084-0.089c0.028-0.03,0.058-0.06,0.086-0.089c0.02-0.019,0.039-0.036,0.059-0.056l0,0l0.016-0.017
	l0.015-0.014c0.031-0.027,0.062-0.058,0.093-0.086c0.035-0.031,0.07-0.062,0.106-0.092c0.037-0.032,0.074-0.063,0.112-0.095
	c0,0,0.005-0.003,0.011-0.006c0.006-0.006,0.012-0.012,0.012-0.012c0.03-0.022,0.059-0.047,0.091-0.07
	c0.038-0.029,0.077-0.059,0.116-0.089c0.049-0.033,0.099-0.069,0.15-0.103c0,0,0.005-0.005,0.013-0.009
	c0.007-0.006,0.014-0.011,0.014-0.011c0.049-0.031,0.087-0.058,0.125-0.083c0.052-0.033,0.104-0.067,0.157-0.1l0.087-0.051
	l0.017-0.009l0.025-0.017l0.018-0.009l0.015-0.01c0.097-0.056,0.194-0.109,0.295-0.161l0.033-0.017l0.031-0.014
	c0.027-0.017,0.054-0.027,0.08-0.042l0.024-0.011l0.044-0.022c0.03-0.016,0.063-0.031,0.092-0.047
	c0.058-0.025,0.114-0.05,0.172-0.076l0.044-0.02l0.028-0.012l0.027-0.013l0.034-0.016c0.12-0.051,0.228-0.093,0.339-0.137
	l0.06-0.021l0.019-0.009c0.023-0.007,0.046-0.017,0.068-0.024l0.034-0.012l0.065-0.024c0.083-0.029,0.167-0.059,0.251-0.086
	l0.053-0.015l0.037-0.014l0.063-0.021l0.051-0.014l0.054-0.018c0.086-0.026,0.174-0.05,0.26-0.075L10,15.358l0.033-0.01
	c0.039-0.01,0.08-0.021,0.119-0.03l0.048-0.012c0.036-0.012,0.073-0.02,0.109-0.028c0.067-0.017,0.136-0.032,0.203-0.045l0.037-0.01
	l0.039-0.01l0.038-0.007l0.017-0.004h0.001l0.035-0.009c0.125-0.027,0.25-0.05,0.375-0.073l0.04-0.006l0.04-0.005l0.117-0.021
	l0.05-0.008c0.045-0.007,0.089-0.016,0.136-0.022c0.069-0.01,0.139-0.021,0.208-0.027l0.047-0.008l0.043-0.006l0.019-0.002
	l0.017-0.003l0.027-0.003l0.058-0.006c0.07-0.009,0.142-0.017,0.211-0.023c0.07-0.007,0.143-0.015,0.213-0.021l0.029-0.001
	l0.027-0.002l0.108-0.01c0.055-0.004,0.11-0.008,0.165-0.012c0.017-0.001,0.034-0.001,0.051-0.002l0.184,3.592h1.431l0.183-3.585
	l0.099,0.007l0.147,0.012c0.05,0.005,0.1,0.008,0.148,0.013L15,14.987c0.05,0.005,0.099,0.012,0.149,0.019l0.134,0.016
	c-0.001,0,0.015,0.002,0.015,0.002l0,0c0.05,0.008,0.1,0.013,0.148,0.02c0.053,0.009,0.104,0.015,0.158,0.022
	c0.053,0.008,0.104,0.018,0.157,0.024l0.06,0.01l0.027,0.007l0.02,0.004l0.026,0.002l0.023,0.005
	c0.052,0.009,0.103,0.019,0.154,0.027c0.057,0.012,0.114,0.022,0.174,0.035c0.057,0.01,0.112,0.023,0.169,0.034
	c0.057,0.015,0.116,0.026,0.17,0.039c0.057,0.012,0.112,0.026,0.17,0.04c0.064,0.018,0.131,0.032,0.194,0.05
	c0.084,0.022,0.15,0.042,0.22,0.06c0.069,0.021,0.136,0.04,0.203,0.063l0.047,0.012l0.041,0.015l0.014,0.003l0.019,0.006
	l0.038,0.014l0.044,0.014c0.024,0.009,0.047,0.017,0.072,0.024c0.019,0.009,0.038,0.016,0.058,0.023
	c0.133,0.045,0.265,0.091,0.394,0.142c0.065,0.025,0.131,0.052,0.193,0.078l0.067,0.026c0.033,0.014,0.067,0.027,0.103,0.04
	c0.035,0.018,0.074,0.035,0.107,0.052l0.074,0.035c0.02,0.009,0.04,0.017,0.057,0.023c0.022,0.01,0.044,0.02,0.064,0.029
	c0.01,0.005,0.021,0.011,0.03,0.018c0.013,0.005,0.024,0.011,0.035,0.017c0.117,0.059,0.239,0.122,0.371,0.195l0.058,0.03
	c0.025,0.014,0.051,0.027,0.076,0.043c0.163,0.095,0.319,0.192,0.462,0.29l0.014,0.011c0.012,0.007,0.021,0.015,0.03,0.022
	c0.011,0.009,0.021,0.016,0.031,0.023c0.096,0.068,0.192,0.137,0.28,0.208c0.014,0.009,0.023,0.02,0.034,0.03
	c0.01,0.008,0.021,0.018,0.031,0.026c0.039,0.031,0.075,0.063,0.109,0.097l0.027,0.025c0.09,0.076,0.172,0.154,0.247,0.231
	c0.011,0.01,0.021,0.022,0.036,0.034c0.011,0.013,0.025,0.022,0.037,0.036c0.026,0.028,0.053,0.059,0.079,0.087l0.028,0.034
	l0.019,0.021l0.028,0.031c0.048,0.059,0.096,0.117,0.142,0.178h-2.963h-0.018l0.003,0.018l0.116,1.264l-0.001,0.016h0.014h3.444
	c0.015,0.068,0.023,0.138,0.032,0.208c0.008,0.073,0.011,0.146,0.013,0.221C21.611,19.477,21.608,19.536,21.606,19.598z
	 M8.552,18.972h0.385l0,0H8.552z M9.021,17.848l0.026-0.142H9.05L9.021,17.848z M18.007,17.706L18.007,17.706h0.406H18.007z
	 M18.124,18.946l-0.002,0.025h-0.001L18.124,18.946z"/>
<polygon fill="#A6A8AB" points="17.178,9.823 17.178,0.5 9.823,0.5 9.823,9.823 0.5,9.823 0.5,17.177 9.823,17.177 9.823,26.5 
	17.178,26.5 17.178,17.177 26.5,17.177 26.5,9.823 "/>
</svg>
