<?xml version="1.0" encoding="utf-8"?>
<!-- Generator: Adobe Illustrator 16.0.0, SVG Export Plug-In . SVG Version: 6.00 Build 0)  -->
<!DOCTYPE svg PUBLIC "-//W3C//DTD SVG 1.1//EN" "http://www.w3.org/Graphics/SVG/1.1/DTD/svg11.dtd">
<svg version="1.1" id="Layer_1" xmlns="http://www.w3.org/2000/svg" xmlns:xlink="http://www.w3.org/1999/xlink" x="0px" y="0px"
	 width="27px" height="27px" viewBox="0 0 27 27" enable-background="new 0 0 27 27" xml:space="preserve">
<g display="none">
	
		<linearGradient id="SVGID_1_" gradientUnits="userSpaceOnUse" x1="242.3643" y1="597.499" x2="268.6924" y2="597.499" gradientTransform="matrix(1 0 0 1 -242 -584)">
		<stop  offset="0" style="stop-color:#EBEBED"/>
		<stop  offset="1" style="stop-color:#FFFFFF"/>
	</linearGradient>
	<path display="inline" fill="url(#SVGID_1_)" d="M25.818,13.499c0.709-0.884,1.018-2.041,0.811-3.184
		c-0.217-1.194-0.947-2.194-1.98-2.764c0.338-1.178,0.115-2.468-0.637-3.471c-0.744-0.992-1.931-1.582-3.171-1.582
		c-0.178,0-0.353,0.011-0.524,0.029c-0.609-1.434-2.033-2.413-3.646-2.413c-1.276,0-2.416,0.61-3.141,1.551
		c-0.725-0.94-1.864-1.551-3.142-1.551c-1.611,0-3.037,0.979-3.646,2.417C6.568,2.51,6.392,2.499,6.215,2.499
		c-1.26,0-2.416,0.578-3.171,1.584C2.292,5.084,2.072,6.378,2.408,7.556c-1.031,0.565-1.764,1.565-1.979,2.76
		c-0.21,1.143,0.099,2.302,0.808,3.186c-0.709,0.884-1.018,2.044-0.808,3.186c0.215,1.191,0.947,2.192,1.98,2.763
		c-0.338,1.18-0.116,2.468,0.636,3.473c0.744,0.992,1.931,1.584,3.171,1.584c0.177,0,0.352-0.013,0.525-0.03
		c0.61,1.436,2.034,2.407,3.646,2.407c1.277,0,2.417-0.606,3.142-1.549c0.725,0.94,1.862,1.549,3.141,1.549
		c1.611,0,3.037-0.979,3.646-2.413c0.175,0.023,0.351,0.034,0.525,0.034c1.262,0,2.415-0.579,3.17-1.584
		c0.752-1.003,0.975-2.297,0.637-3.473c1.033-0.566,1.767-1.567,1.979-2.763C26.836,15.543,26.527,14.383,25.818,13.499"/>
	<path display="inline" fill="#80298F" d="M25.818,13.499c0.709-0.887,1.018-2.045,0.811-3.186c-0.217-1.192-0.949-2.192-1.98-2.762
		c0.336-1.178,0.115-2.468-0.637-3.471c-0.744-0.992-1.931-1.582-3.173-1.582c-0.176,0-0.351,0.005-0.522,0.029
		c-0.609-1.432-2.033-2.413-3.646-2.413c-1.277,0-2.414,0.612-3.139,1.551c-0.725-0.938-1.864-1.551-3.142-1.551
		c-1.613,0-3.037,0.979-3.646,2.417C6.568,2.51,6.392,2.499,6.215,2.499c-1.26,0-2.416,0.578-3.169,1.584
		C2.292,5.084,2.072,6.378,2.408,7.552C1.377,8.121,0.645,9.121,0.43,10.315c-0.21,1.143,0.097,2.302,0.808,3.186
		c-0.711,0.884-1.018,2.045-0.808,3.185c0.215,1.192,0.947,2.193,1.98,2.764c-0.338,1.18-0.116,2.468,0.636,3.473
		c0.742,0.992,1.931,1.584,3.171,1.584c0.177,0,0.352-0.013,0.525-0.037c0.61,1.44,2.032,2.418,3.646,2.418
		c1.277,0,2.417-0.609,3.142-1.553c0.725,0.941,1.861,1.553,3.139,1.553c1.613,0,3.039-0.98,3.647-2.418
		c0.175,0.024,0.351,0.037,0.525,0.037c1.262,0,2.415-0.581,3.17-1.586c0.752-1.003,0.973-2.297,0.637-3.475
		c1.031-0.564,1.767-1.565,1.979-2.76C26.836,15.543,26.527,14.383,25.818,13.499 M12.709,22.923c0,1.277-1.04,2.323-2.321,2.323
		c-1.109,0-2.068-0.79-2.278-1.878l-0.011-0.056c-0.021-0.133-0.033-0.261-0.033-0.392c0-0.378,0.092-0.741,0.261-1.065
		c0.615,0.377,1.323,0.578,2.067,0.578v-1.64c-0.621,0-1.204-0.235-1.643-0.68c-0.438-0.439-0.68-1.021-0.68-1.642H6.43
		c0,0.801,0.241,1.569,0.682,2.221c-0.432,0.635-0.668,1.379-0.684,2.16c-0.069,0.004-0.139,0.008-0.211,0.008
		c-0.738,0-1.416-0.338-1.859-0.93c-0.546-0.727-0.615-1.709-0.178-2.511l0.194-0.354l-0.333-0.754l-0.367-0.105
		c-0.849-0.249-1.475-0.943-1.631-1.814c-0.142-0.76,0.113-1.537,0.661-2.074h3.809c0.156,0.746,0.524,1.43,1.073,1.979
		c0.719,0.718,1.711,1.161,2.802,1.161h2.321V22.923z M12.709,15.82h-2.321c-1.238,0-2.251-0.971-2.318-2.19v-0.011
		c-0.002-0.037-0.004-0.079-0.004-0.118c0-0.621,0.242-1.205,0.682-1.641l-1.161-1.159c-0.549,0.551-0.917,1.232-1.073,1.979H2.702
		c-0.546-0.536-0.801-1.31-0.661-2.07c0.158-0.874,0.784-1.57,1.633-1.82l0.367-0.104l0.333-0.754L4.18,7.577
		C3.742,6.778,3.81,5.791,4.355,5.065c0.443-0.59,1.121-0.928,1.859-0.928c0.072,0,0.144,0.002,0.213,0.01
		c0.016,0.78,0.252,1.524,0.684,2.16C6.671,6.954,6.43,7.721,6.43,8.523l1.642,0.002c0-0.621,0.242-1.207,0.68-1.643
		c0.438-0.438,1.021-0.678,1.643-0.678v-1.64c-0.744,0-1.452,0.201-2.067,0.581c-0.169-0.327-0.261-0.69-0.261-1.069
		c0-0.127,0.013-0.259,0.033-0.386l0.011-0.059c0.21-1.088,1.169-1.878,2.278-1.878c1.281,0,2.321,1.043,2.321,2.322L12.709,15.82
		L12.709,15.82z M14.348,4.077c0-1.279,1.043-2.322,2.32-2.322c1.111,0,2.068,0.79,2.28,1.878l0.011,0.057
		c0.021,0.125,0.031,0.261,0.031,0.388c0,0.379-0.09,0.742-0.26,1.069c-0.614-0.38-1.328-0.581-2.066-0.581v1.64
		c0.621,0,1.204,0.24,1.643,0.678c0.438,0.436,0.68,1.021,0.682,1.643l1.638-0.002c0-0.803-0.235-1.569-0.681-2.216
		c0.435-0.638,0.672-1.382,0.685-2.164c0.065-0.004,0.144-0.01,0.211-0.01c0.741,0,1.419,0.34,1.863,0.932
		c0.544,0.726,0.612,1.713,0.177,2.508l-0.195,0.357l0.166,0.371l0.164,0.384l0.369,0.104c0.852,0.25,1.479,0.946,1.637,1.817
		c0.138,0.763-0.117,1.536-0.666,2.072h-3.809c-0.154-0.746-0.521-1.428-1.072-1.979c-0.721-0.717-1.711-1.163-2.805-1.163h-2.32
		V4.077H14.348z M25.018,16.391c-0.158,0.875-0.785,1.568-1.635,1.816l-0.367,0.107l-0.332,0.756l0.195,0.354
		c0.438,0.797,0.367,1.782-0.177,2.51c-0.442,0.592-1.12,0.932-1.859,0.932c-0.071,0-0.144-0.006-0.215-0.012
		c-0.013-0.779-0.25-1.523-0.685-2.158c0.443-0.648,0.681-1.42,0.681-2.219h-1.638c0,0.619-0.242,1.199-0.68,1.641
		c-0.438,0.441-1.021,0.68-1.645,0.68v1.641c0.738,0,1.451-0.203,2.066-0.578c0.168,0.322,0.258,0.688,0.258,1.064
		c0,0.133-0.01,0.26-0.029,0.393l-0.012,0.055c-0.211,1.088-1.17,1.878-2.279,1.878c-1.277,0-2.318-1.046-2.318-2.323V11.179h2.318
		c1.236,0,2.251,0.97,2.318,2.19c0,0,0,0.007,0,0.013c0.002,0.04,0.002,0.079,0.002,0.119c0,0.621-0.24,1.202-0.68,1.642l1.16,1.157
		c0.551-0.552,0.918-1.235,1.074-1.979h3.811C24.9,14.855,25.154,15.631,25.018,16.391"/>
</g>
<g display="none">
	
		<polygon display="inline" fill="none" stroke="#7ED2F6" stroke-width="2" stroke-linecap="round" stroke-linejoin="round" stroke-miterlimit="10" points="
		25.5,7.505 3.577,4.91 3.577,23.12 25.5,20.488 	"/>
	
		<polygon display="inline" fill="none" stroke="#7ED2F6" stroke-width="2" stroke-linecap="round" stroke-linejoin="round" stroke-miterlimit="10" points="
		1.5,5.504 3.577,4.91 3.577,23.12 1.5,21.836 	"/>
</g>
<g display="none">
	<path display="inline" fill="#7ED2F6" d="M25.635,13.5c0.702-0.876,1.008-2.02,0.803-3.147C26.223,9.176,25.5,8.189,24.48,7.627
		c0.332-1.164,0.113-2.438-0.629-3.428c-0.735-0.979-1.906-1.562-3.134-1.562c-0.174,0-0.346,0.005-0.517,0.028
		c-0.604-1.413-2.008-2.382-3.604-2.382c-1.264,0-2.386,0.604-3.1,1.532c-0.717-0.928-1.842-1.532-3.102-1.532
		c-1.594,0-3,0.969-3.6,2.385c-0.171-0.02-0.346-0.031-0.52-0.031c-1.244,0-2.385,0.57-3.129,1.564
		c-0.744,0.988-0.96,2.266-0.628,3.426C1.5,8.189,0.776,9.176,0.564,10.355c-0.207,1.127,0.096,2.273,0.797,3.146
		c-0.701,0.872-1.004,2.021-0.797,3.146c0.212,1.178,0.936,2.164,1.955,2.728c-0.333,1.164-0.114,2.438,0.627,3.433
		c0.733,0.979,1.907,1.563,3.132,1.563c0.174,0,0.346-0.012,0.52-0.035c0.603,1.423,2.005,2.387,3.6,2.387
		c1.26,0,2.385-0.603,3.102-1.533c0.714,0.933,1.836,1.533,3.1,1.533c1.596,0,3.002-0.969,3.604-2.387
		c0.174,0.023,0.348,0.035,0.521,0.035c1.241,0,2.383-0.572,3.127-1.564c0.742-0.99,0.961-2.27,0.629-3.43
		c1.021-0.561,1.744-1.549,1.957-2.725C26.643,15.518,26.337,14.371,25.635,13.5 M12.688,22.807c0,1.262-1.028,2.293-2.291,2.293
		c-1.097,0-2.042-0.781-2.251-1.854l-0.01-0.055c-0.021-0.129-0.034-0.256-0.034-0.385c0-0.377,0.092-0.736,0.259-1.056
		c0.607,0.371,1.306,0.572,2.041,0.572v-1.618c-0.613,0-1.188-0.234-1.621-0.674c-0.432-0.432-0.672-1.006-0.672-1.616h-1.62
		c0,0.788,0.237,1.549,0.673,2.192c-0.426,0.625-0.66,1.358-0.674,2.134c-0.069,0.002-0.139,0.006-0.209,0.006
		c-0.73,0-1.398-0.333-1.836-0.918c-0.539-0.715-0.608-1.687-0.176-2.478L4.459,19l-0.327-0.748l-0.365-0.104
		c-0.838-0.244-1.457-0.936-1.611-1.793c-0.14-0.748,0.112-1.52,0.654-2.045h3.76c0.155,0.733,0.518,1.406,1.061,1.953
		c0.708,0.707,1.689,1.146,2.767,1.146h2.291L12.688,22.807L12.688,22.807z M12.688,15.791h-2.291c-1.223,0-2.223-0.958-2.29-2.163
		v-0.011c-0.002-0.036-0.005-0.078-0.005-0.116c0-0.613,0.24-1.19,0.674-1.62L7.63,10.736c-0.543,0.544-0.906,1.217-1.061,1.954
		H2.807c-0.539-0.529-0.791-1.294-0.652-2.045c0.155-0.862,0.774-1.55,1.612-1.797l0.365-0.104l0.327-0.743l-0.192-0.35
		C3.835,6.862,3.904,5.887,4.44,5.171c0.438-0.582,1.108-0.916,1.836-0.916c0.072,0,0.143,0.001,0.212,0.009
		C6.502,5.036,6.736,5.77,7.162,6.398C6.726,7.037,6.489,7.792,6.489,8.586l1.62,0.001c0-0.614,0.24-1.192,0.672-1.622
		c0.433-0.432,1.008-0.67,1.621-0.67V4.678c-0.735,0-1.433,0.197-2.041,0.573C8.195,4.928,8.103,4.568,8.103,4.196
		c0-0.126,0.013-0.257,0.034-0.381l0.01-0.059c0.208-1.073,1.154-1.854,2.251-1.854c1.263,0,2.291,1.03,2.291,2.294L12.688,15.791
		L12.688,15.791z M14.309,4.196c0-1.264,1.027-2.294,2.291-2.294c1.099,0,2.043,0.78,2.254,1.854l0.008,0.056
		c0.021,0.124,0.033,0.258,0.033,0.384c0,0.372-0.09,0.732-0.258,1.055c-0.607-0.376-1.312-0.573-2.041-0.573v1.617
		c0.613,0,1.19,0.238,1.621,0.67c0.434,0.429,0.67,1.008,0.672,1.622l1.618-0.001c0-0.793-0.233-1.549-0.672-2.188
		c0.429-0.631,0.661-1.364,0.677-2.138c0.066-0.004,0.139-0.01,0.206-0.01c0.731,0,1.401,0.337,1.841,0.92
		c0.537,0.717,0.605,1.691,0.174,2.476L22.539,8l0.162,0.367l0.162,0.378l0.363,0.104c0.84,0.247,1.463,0.935,1.615,1.795
		c0.139,0.752-0.115,1.517-0.654,2.046H20.43c-0.152-0.736-0.517-1.41-1.062-1.954c-0.712-0.708-1.69-1.148-2.771-1.148h-2.291
		V4.196H14.309z M24.844,16.354c-0.152,0.861-0.775,1.549-1.615,1.793l-0.36,0.106l-0.327,0.748l0.191,0.351
		c0.434,0.785,0.363,1.76-0.174,2.479c-0.438,0.585-1.107,0.918-1.834,0.918c-0.072,0-0.144-0.004-0.213-0.013
		c-0.016-0.771-0.248-1.506-0.677-2.129c0.438-0.644,0.672-1.402,0.672-2.19h-1.618c0,0.608-0.238,1.187-0.672,1.616
		c-0.431,0.438-1.008,0.674-1.621,0.674v1.618c0.729,0,1.434-0.201,2.041-0.572c0.168,0.317,0.258,0.681,0.258,1.056
		c0,0.129-0.013,0.256-0.033,0.385l-0.008,0.055C18.643,24.32,17.697,25.1,16.6,25.1c-1.264,0-2.291-1.031-2.291-2.293V11.208H16.6
		c1.227,0,2.227,0.958,2.289,2.164c0,0,0,0.006,0,0.012c0.006,0.04,0.006,0.078,0.006,0.118c0,0.609-0.24,1.188-0.672,1.621
		l1.146,1.143c0.545-0.545,0.906-1.219,1.063-1.953h3.76C24.729,14.838,24.98,15.604,24.844,16.354"/>
</g>
<g display="none">
	<g display="inline">
		<g>
			<g>
				<path fill="#0D4B9F" d="M25.635,13.5c0.702-0.876,1.008-2.02,0.803-3.147C26.223,9.176,25.5,8.189,24.48,7.627
					c0.332-1.164,0.113-2.438-0.629-3.428c-0.735-0.979-1.906-1.562-3.134-1.562c-0.174,0-0.346,0.005-0.517,0.028
					c-0.604-1.413-2.008-2.382-3.604-2.382c-1.264,0-2.386,0.604-3.1,1.532c-0.717-0.928-1.842-1.532-3.102-1.532
					c-1.594,0-3,0.969-3.6,2.385c-0.171-0.02-0.346-0.031-0.52-0.031c-1.244,0-2.385,0.57-3.129,1.564
					c-0.744,0.988-0.96,2.266-0.628,3.426C1.5,8.189,0.776,9.176,0.564,10.355c-0.207,1.127,0.096,2.273,0.797,3.146
					c-0.701,0.872-1.004,2.021-0.797,3.146c0.212,1.178,0.936,2.164,1.955,2.728c-0.333,1.164-0.114,2.438,0.627,3.433
					c0.733,0.979,1.907,1.563,3.132,1.563c0.174,0,0.346-0.012,0.52-0.035c0.603,1.423,2.005,2.387,3.6,2.387
					c1.26,0,2.385-0.603,3.102-1.533c0.714,0.933,1.836,1.533,3.1,1.533c1.596,0,3.002-0.969,3.604-2.387
					c0.174,0.023,0.348,0.035,0.521,0.035c1.241,0,2.383-0.572,3.127-1.564c0.742-0.99,0.961-2.27,0.629-3.43
					c1.021-0.561,1.744-1.549,1.957-2.725C26.643,15.518,26.337,14.371,25.635,13.5 M12.688,22.807c0,1.262-1.028,2.293-2.291,2.293
					c-1.097,0-2.042-0.781-2.251-1.854l-0.01-0.055c-0.021-0.129-0.034-0.256-0.034-0.385c0-0.377,0.092-0.736,0.259-1.056
					c0.607,0.371,1.306,0.572,2.041,0.572v-1.618c-0.613,0-1.188-0.234-1.621-0.674c-0.432-0.432-0.672-1.006-0.672-1.616h-1.62
					c0,0.788,0.237,1.549,0.673,2.192c-0.426,0.625-0.66,1.358-0.674,2.134c-0.069,0.002-0.139,0.006-0.209,0.006
					c-0.73,0-1.398-0.333-1.836-0.918c-0.539-0.715-0.608-1.687-0.176-2.478L4.459,19l-0.327-0.748l-0.365-0.104
					c-0.838-0.244-1.457-0.936-1.611-1.793c-0.14-0.748,0.112-1.52,0.654-2.045h3.76c0.155,0.733,0.518,1.406,1.061,1.953
					c0.708,0.707,1.689,1.146,2.767,1.146h2.291L12.688,22.807L12.688,22.807z M12.688,15.791h-2.291
					c-1.223,0-2.223-0.958-2.29-2.163v-0.011c-0.002-0.036-0.005-0.078-0.005-0.116c0-0.613,0.24-1.19,0.674-1.62L7.63,10.736
					c-0.543,0.544-0.906,1.217-1.061,1.954H2.807c-0.539-0.529-0.791-1.294-0.652-2.045c0.155-0.862,0.774-1.55,1.612-1.797
					l0.365-0.104l0.327-0.743l-0.192-0.35C3.835,6.862,3.904,5.887,4.44,5.171c0.438-0.582,1.108-0.916,1.836-0.916
					c0.072,0,0.143,0.001,0.212,0.009C6.502,5.036,6.736,5.77,7.162,6.398C6.726,7.037,6.489,7.792,6.489,8.586l1.62,0.001
					c0-0.614,0.24-1.192,0.672-1.622c0.433-0.432,1.008-0.67,1.621-0.67V4.678c-0.735,0-1.433,0.197-2.041,0.573
					C8.195,4.928,8.103,4.568,8.103,4.196c0-0.126,0.013-0.257,0.034-0.381l0.01-0.059c0.208-1.073,1.154-1.854,2.251-1.854
					c1.263,0,2.291,1.03,2.291,2.294L12.688,15.791L12.688,15.791z M14.309,4.196c0-1.264,1.027-2.294,2.291-2.294
					c1.099,0,2.043,0.78,2.254,1.854l0.008,0.056c0.021,0.124,0.033,0.258,0.033,0.384c0,0.372-0.09,0.732-0.258,1.055
					c-0.607-0.376-1.312-0.573-2.041-0.573v1.617c0.613,0,1.19,0.238,1.621,0.67c0.434,0.429,0.67,1.008,0.672,1.622l1.618-0.001
					c0-0.793-0.233-1.549-0.672-2.188c0.429-0.631,0.661-1.364,0.677-2.138c0.066-0.004,0.139-0.01,0.206-0.01
					c0.731,0,1.401,0.337,1.841,0.92c0.537,0.717,0.605,1.691,0.174,2.476L22.539,8l0.162,0.367l0.162,0.378l0.363,0.104
					c0.84,0.247,1.463,0.935,1.615,1.795c0.139,0.752-0.115,1.517-0.654,2.046H20.43c-0.152-0.736-0.517-1.41-1.062-1.954
					c-0.712-0.708-1.69-1.148-2.771-1.148h-2.291V4.196H14.309z M24.844,16.354c-0.152,0.861-0.775,1.549-1.615,1.793l-0.36,0.106
					l-0.327,0.748l0.191,0.351c0.434,0.785,0.363,1.76-0.174,2.479c-0.438,0.585-1.107,0.918-1.834,0.918
					c-0.072,0-0.144-0.004-0.213-0.013c-0.016-0.771-0.248-1.506-0.677-2.129c0.438-0.644,0.672-1.402,0.672-2.19h-1.618
					c0,0.608-0.238,1.187-0.672,1.616c-0.431,0.438-1.008,0.674-1.621,0.674v1.618c0.729,0,1.434-0.201,2.041-0.572
					c0.168,0.317,0.258,0.681,0.258,1.056c0,0.129-0.013,0.256-0.033,0.385l-0.008,0.055C18.643,24.32,17.697,25.1,16.6,25.1
					c-1.264,0-2.291-1.031-2.291-2.293V11.208H16.6c1.227,0,2.227,0.958,2.289,2.164c0,0,0,0.006,0,0.012
					c0.006,0.04,0.006,0.078,0.006,0.118c0,0.609-0.24,1.188-0.672,1.621l1.146,1.143c0.545-0.545,0.906-1.219,1.063-1.953h3.76
					C24.729,14.838,24.98,15.604,24.844,16.354"/>
			</g>
		</g>
	</g>
</g>
<g display="none">
	<g display="inline">
		<g>
			<g>
				<path fill="#80298F" d="M25.635,13.499c0.702-0.875,1.008-2.019,0.803-3.146C26.223,9.176,25.5,8.189,24.48,7.626
					c0.332-1.164,0.113-2.437-0.629-3.427c-0.735-0.979-1.906-1.563-3.134-1.563c-0.174,0-0.346,0.005-0.517,0.028
					c-0.604-1.413-2.008-2.381-3.604-2.381c-1.264,0-2.386,0.603-3.1,1.532c-0.717-0.929-1.842-1.532-3.102-1.532
					c-1.594,0-3,0.969-3.6,2.384C6.625,2.648,6.45,2.636,6.276,2.636c-1.244,0-2.385,0.57-3.129,1.564
					c-0.744,0.988-0.96,2.266-0.628,3.425C1.5,8.188,0.776,9.176,0.564,10.354C0.357,11.482,0.66,12.627,1.361,13.5
					c-0.701,0.872-1.004,2.02-0.797,3.145c0.212,1.179,0.936,2.164,1.955,2.728c-0.333,1.165-0.114,2.438,0.627,3.433
					c0.733,0.979,1.907,1.563,3.132,1.563c0.174,0,0.346-0.012,0.52-0.034c0.603,1.423,2.005,2.388,3.6,2.388
					c1.26,0,2.385-0.604,3.102-1.535c0.714,0.934,1.836,1.535,3.1,1.535c1.596,0,3.002-0.97,3.604-2.388
					c0.174,0.022,0.348,0.034,0.521,0.034c1.241,0,2.383-0.571,3.127-1.565c0.742-0.991,0.961-2.268,0.629-3.428
					c1.021-0.562,1.744-1.549,1.957-2.726C26.643,15.516,26.337,14.371,25.635,13.499 M12.688,22.807
					c0,1.26-1.028,2.291-2.291,2.291c-1.097,0-2.042-0.779-2.251-1.854l-0.01-0.055c-0.021-0.127-0.034-0.254-0.034-0.383
					c0-0.377,0.092-0.736,0.259-1.057c0.607,0.371,1.306,0.57,2.041,0.57v-1.616c-0.613,0-1.188-0.233-1.621-0.677
					c-0.432-0.43-0.672-1.006-0.672-1.613h-1.62c0,0.787,0.237,1.549,0.673,2.191c-0.426,0.625-0.66,1.358-0.674,2.135
					c-0.069,0.002-0.139,0.006-0.209,0.006c-0.73,0-1.398-0.334-1.836-0.918c-0.539-0.715-0.608-1.688-0.176-2.479L4.459,19
					l-0.327-0.749l-0.365-0.104c-0.838-0.242-1.457-0.934-1.611-1.793c-0.14-0.748,0.112-1.518,0.654-2.045h3.76
					c0.155,0.734,0.518,1.407,1.061,1.955c0.708,0.707,1.689,1.146,2.767,1.146h2.291L12.688,22.807L12.688,22.807z M12.688,15.79
					h-2.291c-1.223,0-2.223-0.958-2.29-2.162v-0.011c-0.002-0.036-0.005-0.078-0.005-0.116c0-0.613,0.24-1.19,0.674-1.621
					L7.63,10.735c-0.543,0.544-0.906,1.217-1.061,1.954H2.807c-0.539-0.53-0.791-1.294-0.652-2.045
					C2.31,9.783,2.929,9.095,3.767,8.848l0.365-0.104l0.327-0.743l-0.193-0.35C3.834,6.862,3.903,5.888,4.439,5.17
					c0.438-0.581,1.108-0.916,1.836-0.916c0.072,0,0.143,0.001,0.212,0.009C6.502,5.035,6.736,5.77,7.162,6.398
					C6.726,7.036,6.489,7.792,6.489,8.586l1.62,0.001c0-0.613,0.24-1.192,0.672-1.622c0.433-0.432,1.008-0.67,1.621-0.67V4.678
					c-0.735,0-1.433,0.197-2.041,0.573C8.195,4.928,8.103,4.567,8.103,4.196c0-0.126,0.013-0.257,0.034-0.382l0.01-0.059
					c0.208-1.073,1.154-1.854,2.251-1.854c1.263,0,2.291,1.03,2.291,2.294L12.688,15.79L12.688,15.79z M14.309,4.196
					c0-1.264,1.027-2.294,2.291-2.294c1.099,0,2.043,0.781,2.254,1.854l0.008,0.057c0.021,0.124,0.033,0.258,0.033,0.384
					c0,0.372-0.09,0.732-0.258,1.055c-0.607-0.376-1.312-0.573-2.041-0.573v1.617c0.613,0,1.19,0.238,1.621,0.67
					c0.434,0.429,0.67,1.008,0.672,1.622l1.618-0.001c0-0.794-0.233-1.55-0.672-2.188c0.429-0.631,0.661-1.364,0.677-2.138
					c0.066-0.005,0.139-0.011,0.206-0.011c0.731,0,1.401,0.337,1.841,0.92c0.537,0.717,0.605,1.691,0.174,2.476L22.539,8
					l0.162,0.367l0.162,0.378l0.363,0.104c0.84,0.248,1.463,0.935,1.615,1.795c0.139,0.752-0.115,1.517-0.654,2.046H20.43
					c-0.152-0.736-0.517-1.41-1.062-1.954c-0.712-0.708-1.69-1.148-2.771-1.148h-2.291V4.196H14.309z M24.844,16.354
					c-0.152,0.861-0.775,1.549-1.615,1.793l-0.36,0.105l-0.327,0.749l0.191,0.351c0.434,0.785,0.363,1.76-0.174,2.479
					c-0.438,0.584-1.107,0.918-1.834,0.918c-0.072,0-0.144-0.004-0.213-0.013c-0.016-0.771-0.248-1.506-0.677-2.129
					c0.438-0.644,0.672-1.403,0.672-2.19h-1.618c0,0.608-0.238,1.187-0.672,1.615c-0.431,0.438-1.008,0.675-1.621,0.675v1.617
					c0.729,0,1.434-0.2,2.041-0.571c0.168,0.317,0.258,0.681,0.258,1.056c0,0.129-0.013,0.256-0.033,0.385l-0.008,0.054
					C18.643,24.318,17.697,25.1,16.6,25.1c-1.264,0-2.291-1.031-2.291-2.293V11.208H16.6c1.227,0,2.227,0.958,2.289,2.164
					c0,0,0,0.006,0,0.012c0.006,0.04,0.006,0.078,0.006,0.118c0,0.609-0.24,1.188-0.672,1.62l1.146,1.144
					c0.545-0.547,0.906-1.22,1.063-1.953h3.76C24.729,14.838,24.98,15.604,24.844,16.354"/>
			</g>
		</g>
	</g>
</g>
<g display="none">
	<path display="inline" fill="#EFF0F0" d="M25.818,13.498c0.709-0.885,1.018-2.044,0.811-3.185c-0.217-1.194-0.949-2.194-1.98-2.764
		c0.338-1.178,0.115-2.468-0.637-3.471c-0.746-0.992-1.932-1.584-3.172-1.584c-0.178,0-0.352,0.013-0.525,0.031
		c-0.607-1.434-2.031-2.412-3.645-2.412c-1.279,0-2.416,0.609-3.141,1.551c-0.725-0.941-1.864-1.551-3.142-1.551
		c-1.611,0-3.037,0.979-3.646,2.416C6.568,2.507,6.392,2.494,6.215,2.494c-1.26,0-2.416,0.581-3.171,1.586
		C2.292,5.081,2.072,6.375,2.408,7.553c-1.031,0.565-1.764,1.565-1.979,2.76c-0.21,1.143,0.099,2.302,0.808,3.185
		c-0.709,0.885-1.018,2.043-0.808,3.186c0.215,1.191,0.947,2.193,1.98,2.762c-0.338,1.182-0.116,2.469,0.636,3.475
		c0.744,0.992,1.931,1.584,3.171,1.584c0.177,0,0.352-0.014,0.525-0.029c0.61,1.434,2.034,2.406,3.646,2.406
		c1.277,0,2.417-0.605,3.142-1.549c0.725,0.939,1.862,1.549,3.141,1.549c1.611,0,3.037-0.979,3.645-2.414
		c0.178,0.023,0.354,0.035,0.527,0.035c1.262,0,2.416-0.58,3.17-1.584c0.752-1.004,0.975-2.297,0.637-3.475
		c1.031-0.564,1.768-1.566,1.98-2.762C26.836,15.541,26.527,14.381,25.818,13.498"/>
	<path display="inline" fill="#0D4B9F" d="M25.818,13.498c0.709-0.889,1.018-2.048,0.811-3.187c-0.217-1.192-0.951-2.192-1.98-2.762
		c0.336-1.178,0.115-2.468-0.637-3.471c-0.746-0.992-1.932-1.584-3.174-1.584c-0.176,0-0.35,0.008-0.523,0.031
		c-0.607-1.432-2.031-2.412-3.646-2.412c-1.278,0-2.414,0.609-3.139,1.551c-0.725-0.941-1.864-1.551-3.142-1.551
		c-1.613,0-3.037,0.98-3.646,2.416c-0.174-0.022-0.35-0.035-0.527-0.035c-1.26,0-2.416,0.581-3.169,1.586
		C2.292,5.081,2.072,6.375,2.408,7.549C1.377,8.118,0.645,9.118,0.43,10.313c-0.21,1.141,0.097,2.302,0.808,3.185
		c-0.711,0.885-1.018,2.047-0.808,3.186c0.215,1.191,0.947,2.193,1.98,2.762c-0.338,1.182-0.116,2.469,0.636,3.475
		c0.742,0.992,1.931,1.584,3.171,1.584c0.177,0,0.352-0.014,0.525-0.037c0.61,1.438,2.032,2.418,3.646,2.418
		c1.277,0,2.417-0.609,3.142-1.553c0.725,0.939,1.859,1.553,3.139,1.553c1.613,0,3.039-0.979,3.646-2.418
		c0.178,0.023,0.354,0.037,0.527,0.037c1.262,0,2.416-0.582,3.17-1.586c0.752-1.004,0.973-2.297,0.637-3.475
		c1.029-0.564,1.768-1.566,1.98-2.76C26.836,15.541,26.527,14.381,25.818,13.498 M12.709,22.92c0,1.277-1.04,2.324-2.321,2.324
		c-1.109,0-2.068-0.791-2.278-1.879l-0.011-0.055c-0.021-0.135-0.033-0.262-0.033-0.393c0-0.377,0.092-0.742,0.261-1.064
		c0.615,0.377,1.323,0.578,2.067,0.578v-1.641c-0.621,0-1.204-0.234-1.643-0.682c-0.438-0.438-0.68-1.02-0.68-1.639H6.43
		c0,0.799,0.241,1.568,0.682,2.219c-0.432,0.637-0.668,1.379-0.684,2.162c-0.069,0.004-0.139,0.006-0.211,0.006
		c-0.738,0-1.416-0.338-1.859-0.93c-0.546-0.725-0.615-1.709-0.178-2.508l0.194-0.355l-0.333-0.756l-0.367-0.104
		c-0.849-0.248-1.475-0.945-1.631-1.814c-0.142-0.76,0.113-1.537,0.661-2.074h3.809c0.156,0.746,0.524,1.43,1.073,1.979
		c0.719,0.719,1.711,1.162,2.802,1.162h2.321V22.92z M12.709,15.818h-2.321c-1.238,0-2.251-0.971-2.318-2.194v-0.008
		c-0.002-0.037-0.004-0.08-0.004-0.119c0-0.621,0.242-1.205,0.682-1.642l-1.161-1.157c-0.549,0.551-0.917,1.233-1.073,1.979H2.702
		c-0.546-0.537-0.801-1.31-0.661-2.071c0.158-0.873,0.784-1.569,1.633-1.819l0.367-0.104L4.374,7.93L4.18,7.573
		c-0.438-0.798-0.37-1.784,0.175-2.51c0.443-0.591,1.121-0.93,1.859-0.93c0.072,0,0.144,0.004,0.213,0.011
		C6.443,4.925,6.68,5.669,7.111,6.303C6.671,6.952,6.43,7.718,6.43,8.521l1.642,0.002c0-0.621,0.242-1.207,0.68-1.643
		c0.438-0.438,1.021-0.678,1.643-0.678V4.563c-0.744,0-1.452,0.2-2.067,0.58c-0.169-0.329-0.261-0.69-0.261-1.069
		c0-0.129,0.013-0.259,0.033-0.386L8.109,3.63c0.21-1.088,1.169-1.878,2.278-1.878c1.281,0,2.321,1.044,2.321,2.322L12.709,15.818
		L12.709,15.818z M14.348,4.074c0-1.278,1.041-2.322,2.32-2.322c1.111,0,2.068,0.79,2.279,1.878l0.012,0.057
		c0.02,0.125,0.031,0.259,0.031,0.388c0,0.379-0.09,0.74-0.26,1.069c-0.615-0.38-1.328-0.58-2.066-0.58v1.639
		c0.621,0,1.203,0.24,1.643,0.678c0.438,0.436,0.678,1.021,0.68,1.643l1.639-0.002c0-0.803-0.234-1.568-0.682-2.218
		c0.436-0.636,0.674-1.38,0.686-2.162c0.066-0.006,0.145-0.01,0.211-0.01c0.742,0,1.42,0.341,1.863,0.932
		c0.545,0.727,0.613,1.713,0.178,2.509l-0.195,0.356L22.85,8.3l0.164,0.384l0.37,0.104c0.851,0.25,1.478,0.946,1.636,1.817
		c0.138,0.763-0.117,1.536-0.666,2.073h-3.808c-0.155-0.746-0.522-1.428-1.073-1.979c-0.72-0.717-1.711-1.163-2.804-1.163H14.35
		V4.074H14.348z M25.018,16.387c-0.158,0.875-0.785,1.57-1.635,1.818l-0.369,0.107l-0.33,0.756l0.195,0.354
		c0.438,0.795,0.367,1.781-0.178,2.51c-0.441,0.592-1.119,0.93-1.859,0.93c-0.07,0-0.143-0.002-0.215-0.01
		c-0.012-0.781-0.25-1.525-0.684-2.158c0.443-0.65,0.68-1.42,0.68-2.219h-1.637c0,0.617-0.242,1.197-0.68,1.639
		c-0.439,0.443-1.021,0.68-1.645,0.68v1.639c0.736,0,1.449-0.201,2.064-0.578c0.17,0.324,0.26,0.689,0.26,1.066
		c0,0.131-0.012,0.258-0.029,0.391l-0.014,0.057c-0.211,1.088-1.168,1.879-2.277,1.879c-1.277,0-2.318-1.047-2.318-2.324V11.174
		h2.318c1.236,0,2.25,0.972,2.316,2.193l0.002,0.012c0.002,0.041,0.002,0.08,0.002,0.119c0,0.62-0.24,1.204-0.68,1.643l1.16,1.156
		c0.551-0.551,0.918-1.234,1.074-1.98h3.811C24.9,14.854,25.154,15.629,25.018,16.387"/>
</g>
<g display="none">
	<g display="inline">
		<path fill="#7ED2F6" d="M9.521,0.5v0.015L4.078,5.947V26.5h18.844v-26H9.521z M20.756,24.333H6.244V8.113h5.443V2.665h9.068
			L20.756,24.333L20.756,24.333z"/>
		<rect x="10.933" y="11.367" fill="#7ED2F6" width="8.213" height="1.806"/>
		<rect x="10.933" y="15.205" fill="#7ED2F6" width="8.213" height="1.806"/>
		<rect x="10.933" y="19.064" fill="#7ED2F6" width="8.213" height="1.805"/>
		<circle fill="#7ED2F6" cx="8.805" cy="12.268" r="0.901"/>
		<circle fill="#7ED2F6" cx="8.805" cy="16.101" r="0.901"/>
		<circle fill="#7ED2F6" cx="8.805" cy="19.952" r="0.9"/>
	</g>
</g>
<g>
	
		<polygon fill="none" stroke="#7ED2F6" stroke-width="1.6" stroke-linecap="round" stroke-linejoin="round" stroke-miterlimit="10" points="
		16.648,23.533 9.958,25.5 9.958,10.942 16.648,8.975 	"/>
	
		<polygon fill="none" stroke="#7ED2F6" stroke-width="1.6" stroke-linecap="round" stroke-linejoin="round" stroke-miterlimit="10" points="
		16.648,23.533 8.778,19.207 8.778,4.646 16.648,8.975 	"/>
	
		<polygon fill="none" stroke="#7ED2F6" stroke-width="1.6" stroke-linecap="round" stroke-linejoin="round" stroke-miterlimit="10" points="
		18.223,16.061 8.778,19.207 8.778,4.646 18.223,1.5 	"/>
</g>
<image display="none" overflow="visible" enable-background="new    " width="17" height="38" xlink:href="F:\Downloads\Icono prospecto.png"  transform="matrix(0.6316 0 0 0.6316 8.1323 1.4995)">
</image>
</svg>
