<?xml version="1.0" encoding="utf-8"?>
<!-- Generator: Adobe Illustrator 16.0.0, SVG Export Plug-In . SVG Version: 6.00 Build 0)  -->
<!DOCTYPE svg PUBLIC "-//W3C//DTD SVG 1.1//EN" "http://www.w3.org/Graphics/SVG/1.1/DTD/svg11.dtd">
<svg version="1.1" id="Layer_1" xmlns="http://www.w3.org/2000/svg" xmlns:xlink="http://www.w3.org/1999/xlink" x="0px" y="0px"
	 width="170px" height="110px" viewBox="0 0 170 110" enable-background="new 0 0 170 110" xml:space="preserve">
<g>
	<g>
		<path fill="#0076BF" d="M9.746,69.428v14.521H5.939V69.428H0.75v-3.165h14.284v3.165H9.746z"/>
		<path fill="#0076BF" d="M17.484,83.949V66.263h10.681v3.042h-6.879v4.052h5.746v3.012h-5.746v4.541h7.646v3.04H17.484z"/>
		<path fill="#0076BF" d="M47.046,84.075l-0.552-11.124l-3.568,10.998h-3.251l-3.493-11.019l-0.646,11.145l-3.681-0.155
			l1.348-17.657h4.295l3.96,12.369l3.967-12.369h4.202l1.229,17.657L47.046,84.075z"/>
		<path fill="#0076BF" d="M55.613,83.949V66.263h3.802v17.687H55.613z"/>
		<path fill="#0076BF" d="M68.622,84.38c-2.298,0-4.168-0.776-6.075-1.66l1.6-3.075c1.54,0.866,3.376,1.511,4.513,1.511
			c1.654,0,2.391-0.77,2.391-1.812c0-2.922-7.793-3.413-7.793-8.807c0-2.738,2.237-4.799,5.521-4.799
			c2.431,0,4.396,0.672,5.653,1.361l-1.354,2.906c-1.44-0.791-2.764-1.29-4.055-1.29c-1.039,0-1.807,0.712-1.807,1.536
			c0,2.856,7.854,3.383,7.854,8.818C75.069,82.72,72.589,84.38,68.622,84.38z"/>
		<path fill="#0076BF" d="M80.019,83.949V66.263h1.715v16.304h7.277v1.383H80.019z"/>
		<path fill="#0076BF" d="M96.496,84.285c-4.663,0-6.874-4.181-6.874-9.182c0-5.548,2.982-9.303,6.874-9.303
			c4.666,0,6.909,4.269,6.909,9.303C103.405,80.665,100.368,84.285,96.496,84.285z M96.381,67.274c-3.594,0-4.917,3.932-4.947,7.434
			c0,3.59,1.11,8.129,5.152,8.129c3.631,0,4.975-3.861,4.975-7.388C101.561,71.883,100.495,67.274,96.381,67.274z"/>
		<path fill="#0076BF" d="M110.374,84.285c-1.725,0-3.773-0.799-4.816-1.346l0.704-1.453c0.952,0.559,2.767,1.325,4.205,1.325
			c2.3,0,3.964-1.228,3.964-3.135c0-4.664-8.071-4.293-8.071-9.57c0-2.554,2.29-4.24,4.661-4.24c2.088,0,3.594,0.707,4.453,1.197
			l-0.682,1.356c-0.887-0.496-2.3-1.146-3.832-1.146c-1.282,0-2.858,0.988-2.858,2.707c0,4.112,7.954,3.957,7.954,9.487
			C116.056,82.474,113.938,84.285,110.374,84.285z"/>
		<path fill="#0076BF" d="M124.157,67.733v16.216h-1.692V67.733h-5.489v-1.471h12.737v1.471H124.157z"/>
		<path fill="#0076BF" d="M140.557,84.192l-2.028-6.104h-6.508l-2.09,6.104l-1.596-0.341l6.229-17.589h1.688l5.927,17.566
			L140.557,84.192z M135.331,68.229l-2.882,8.465h5.642L135.331,68.229z"/>
		<path fill="#0076BF" d="M144.937,83.949V66.263h1.719v16.304h7.28v1.383H144.937z"/>
		<path fill="#0076BF" d="M162.346,84.285c-4.664,0-6.874-4.181-6.874-9.182c0-5.548,2.979-9.303,6.874-9.303
			c4.663,0,6.904,4.269,6.904,9.303C169.25,80.665,166.21,84.285,162.346,84.285z M162.223,67.274c-3.591,0-4.911,3.932-4.941,7.434
			c0,3.59,1.103,8.129,5.159,8.129c3.627,0,4.968-3.861,4.968-7.388C167.408,71.883,166.338,67.274,162.223,67.274z"/>
	</g>
	<g>
		<path fill="#0076BF" d="M62.813,48.297c-0.414-1.995,8.59-22.874,14.101-30.274L73.691,4.604c0,0-15.987,28.403-17.908,35.643
			C53.872,47.612,58.413,46.961,62.813,48.297z"/>
		<linearGradient id="SVGID_1_" gradientUnits="userSpaceOnUse" x1="89.5674" y1="27.9551" x2="68.5678" y2="56.8585">
			<stop  offset="0" style="stop-color:#44C7F4"/>
			<stop  offset="1" style="stop-color:#0076BF"/>
		</linearGradient>
		<path fill="url(#SVGID_1_)" d="M107.836,41.228c0,0-1.651,4.225-12.73,4.711c-11.064,0.677-18.891-0.005-24.178-0.802
			c-5.288-0.819-11.644-2.46-11.104-6.084c0.547-3.606,4.525-17.136,4.525-17.136S53.736,41.39,54.663,44.242
			c0.933,2.819,4.203,8.116,15.026,9.277c10.818,1.015,22.318,0.549,26.663-0.872C100.706,51.291,108.392,45.903,107.836,41.228z"/>
		<linearGradient id="SVGID_2_" gradientUnits="userSpaceOnUse" x1="80.5078" y1="27.4907" x2="108.5107" y2="27.4907">
			<stop  offset="0" style="stop-color:#00BBE3"/>
			<stop  offset="1" style="stop-color:#0076BF"/>
		</linearGradient>
		<path fill="url(#SVGID_2_)" d="M89.715,1.305l-9.207,5.896c0,0,11.321,16.271,18.517,28.192c2.344,3.654,4.188,7.097,3.408,9.588
			c-1.213,3.887-4.646,6.14-12.172,8.695c4.223-0.519,10.553-1.195,14.903-5.119c4.363-3.682,4.844-8.856-0.856-19.424
			C98.781,18.074,89.715,1.305,89.715,1.305z"/>
	</g>
	<g>
		<path fill="#0076BF" d="M5.584,105.873c0.052,0,0.083-0.03,0.1-0.065l1.536-9.247L5.992,96.54c0.04-0.274,0.098-0.546,0.147-0.803
			c0.572,0,1.318,0,1.905,0c0.491,0,3.226,0,3.641,0c0.647,0,1.03,0,1.374,0c-0.101,0.863-0.203,1.746-0.324,2.603
			c-0.223,0.015-0.504,0.04-0.743,0.051v-1.449c0-0.185-0.081-0.286-0.369-0.32c-0.44-0.03-1.626-0.075-2.987-0.075
			c-0.082,0-0.127,0.015-0.147,0.075l-0.696,4.09c0.932-0.015,1.789-0.015,2.668-0.03c0.354,0,0.441-0.115,0.492-0.33l0.218-0.808
			c0.268-0.021,0.516,0,0.776,0c-0.088,0.517-0.192,1.072-0.288,1.614c-0.085,0.49-0.175,1.047-0.275,1.568
			c-0.251,0.025-0.514,0.025-0.792,0.025l0.088-0.847c0.035-0.291-0.055-0.377-0.403-0.377c-0.797-0.01-1.64-0.01-2.634-0.01
			l-0.67,4.06c-0.055,0.281,0.014,0.331,0.893,0.331c1.346,0,2.363-0.065,2.648-0.13c0.182-0.03,0.289-0.15,0.389-0.336l0.739-1.539
			c0.233,0.051,0.506,0.141,0.732,0.221c-0.291,0.842-0.582,1.719-0.903,2.602c-0.856,0-2.981-0.021-5.227-0.021
			c-0.691,0-1.371,0.021-1.957,0.021c0.047-0.266,0.1-0.537,0.145-0.797L5.584,105.873z"/>
		<path fill="#0076BF" d="M17.78,102.119c0.939-1.143,2.394-2.646,2.837-2.646c0.213,0,0.685,0.481,0.749,0.857
			c-0.819,0.4-1.904,1.093-3.317,2.516l-0.021,0.08c0.472,1.248,0.728,1.93,1.131,2.882c0.039,0.09,0.12,0.141,0.223,0.141
			c0.188,0,0.656-0.075,1.115-0.2c0.05,0.21,0.082,0.471,0.12,0.712c-0.563,0.21-1.589,0.351-2.298,0.351
			c-0.291-0.697-0.729-1.94-1.181-3.208h-0.082c-0.987,1.098-1.744,2.326-2.022,3.263c-0.363,0.03-0.985,0.03-1.426,0.03
			c0.188-0.842,1.829-2.741,3.168-4.05l0.021-0.085c-0.25-0.672-0.538-1.438-0.864-2.261l-1.293,0.286
			c-0.065-0.221-0.12-0.456-0.173-0.676c0.859-0.282,1.813-0.638,1.904-0.638c0.155,0,0.404,0.136,0.562,0.235
			c0.269,0.857,0.506,1.635,0.759,2.411H17.78z"/>
		<path fill="#0076BF" d="M21.908,104.66c0-1.002,0.421-2.691,1.536-3.89c0.861-0.927,1.666-1.298,2.852-1.298
			c0.539,0,1.01,0.165,1.2,0.321c-0.058,0.316-0.476,0.917-0.694,1.047c-0.123-0.07-0.762-0.411-1.23-0.411
			c-0.578,0-1.032,0.371-1.303,0.728c-0.589,0.776-1.077,2.175-1.077,3.288c0,1.097,0.519,1.513,1.28,1.513
			c0.521,0,1.423-0.28,2.075-0.571c0.085,0.206,0.157,0.441,0.205,0.667c-0.729,0.365-1.824,0.827-2.702,0.827
			c-1.02,0-2.142-0.728-2.142-2.211V104.66z"/>
		<path fill="#0076BF" d="M28.186,104.87c0-1.012,0.483-2.816,1.602-4.084c0.841-0.942,1.651-1.313,2.523-1.313
			c1.202,0,1.829,0.942,1.847,1.79c-0.088,0.536-0.441,1.248-0.933,1.513c-0.93,0.481-2.087,0.646-3.553,0.646
			c-0.126,0.401-0.224,0.968-0.224,1.298c0,0.797,0.421,1.238,1.147,1.238c0.67,0,1.739-0.365,2.667-0.882
			c0.103,0.216,0.18,0.44,0.268,0.656c-0.959,0.592-2.207,1.148-3.373,1.148c-0.896,0-1.972-0.677-1.972-1.995V104.87z
			 M31.959,100.28c-0.521,0-0.949,0.285-1.3,0.722c-0.266,0.36-0.584,0.856-0.822,1.684c0.895,0.03,1.787-0.115,2.396-0.416
			c0.394-0.165,0.694-0.437,0.694-0.907c0-0.551-0.288-1.082-0.945-1.082H31.959z"/>
		<path fill="#0076BF" d="M36.132,96.085c-0.043-0.26-0.043-0.5-0.053-0.729c1.504-0.17,2.429-0.456,2.562-0.456
			c0.115,0,0.338,0.198,0.456,0.366c-0.762,3.124-2.098,8.872-2.502,10.642c-0.015,0.05,0,0.11,0.076,0.11
			c0.23,0,0.807-0.09,1.443-0.256c0.058,0.256,0.067,0.486,0.088,0.737c-0.813,0.26-1.742,0.365-2.328,0.365
			c-0.065,0-0.404-0.261-0.542-0.516c0.406-1.689,1.878-8.13,2.396-10.355L36.132,96.085z"/>
		<path fill="#0076BF" d="M39.769,104.87c0-1.012,0.49-2.816,1.608-4.084c0.842-0.942,1.649-1.313,2.523-1.313
			c1.202,0,1.821,0.942,1.842,1.79c-0.08,0.536-0.437,1.248-0.927,1.513c-0.931,0.481-2.09,0.646-3.562,0.646
			c-0.118,0.401-0.218,0.968-0.218,1.298c0,0.797,0.421,1.238,1.143,1.238c0.68,0,1.736-0.365,2.669-0.882
			c0.101,0.216,0.186,0.44,0.269,0.656c-0.963,0.592-2.216,1.148-3.371,1.148c-0.902,0-1.977-0.677-1.977-1.995V104.87z
			 M43.552,100.28c-0.525,0-0.952,0.285-1.306,0.722c-0.268,0.36-0.589,0.856-0.816,1.684c0.882,0.03,1.782-0.115,2.386-0.416
			c0.391-0.165,0.699-0.437,0.699-0.907c0-0.551-0.293-1.082-0.95-1.082H43.552z"/>
		<path fill="#0076BF" d="M47.256,100.655c-0.013-0.256-0.027-0.501-0.027-0.711c1.11-0.206,2.037-0.472,2.152-0.472
			c0.108,0,0.355,0.186,0.441,0.331c-0.105,0.477-0.271,1.152-0.454,1.844l0.121,0.025c1.351-1.563,2.708-2.186,3.468-2.2
			c0.436,0.07,0.867,0.382,1.101,0.857c0.082,0.17,0.103,0.366,0.103,0.526c0,0.757-0.574,2.866-1.356,5.052
			c-0.013,0.07,0,0.125,0.076,0.125c0.202,0,0.674-0.125,1.205-0.271c0.055,0.23,0.09,0.477,0.107,0.707
			c-0.639,0.235-1.486,0.396-2.18,0.396c-0.101,0-0.387-0.24-0.467-0.516c0.283-0.853,0.819-2.611,1.045-3.469
			c0.115-0.485,0.323-1.243,0.323-1.704c0-0.32-0.155-0.611-0.534-0.611c-1.041,0-2.984,1.819-3.252,2.822
			c-0.166,0.601-0.656,2.646-0.822,3.303c-0.396,0.015-0.779,0.015-1.165,0.015c0.366-1.528,1.025-4.31,1.454-6.175L47.256,100.655z
			"/>
		<path fill="#0076BF" d="M55.858,104.66c0-1.002,0.422-2.691,1.534-3.89c0.864-0.927,1.667-1.298,2.854-1.298
			c0.536,0,1.015,0.165,1.192,0.321c-0.045,0.316-0.471,0.917-0.687,1.047c-0.117-0.07-0.762-0.411-1.238-0.411
			c-0.568,0-1.024,0.371-1.29,0.728c-0.597,0.776-1.085,2.175-1.085,3.288c0,1.097,0.521,1.513,1.283,1.513
			c0.523,0,1.418-0.28,2.08-0.571c0.082,0.206,0.147,0.441,0.2,0.667c-0.729,0.365-1.819,0.827-2.696,0.827
			c-1.033,0-2.148-0.728-2.148-2.211V104.66z"/>
		<path fill="#0076BF" d="M62.538,100.601c-0.018-0.235-0.018-0.477-0.036-0.712c1.336-0.181,2.216-0.416,2.366-0.416
			c0.077,0,0.351,0.266,0.438,0.416c-0.386,1.659-1.238,5.208-1.437,6.04c-0.032,0.064,0,0.125,0.054,0.125
			c0.235,0,0.706-0.125,1.277-0.275c0.056,0.24,0.105,0.461,0.117,0.711c-0.688,0.216-1.468,0.376-2.106,0.376
			c-0.083,0-0.486-0.296-0.595-0.526c0.39-1.669,0.933-3.914,1.358-5.824L62.538,100.601z M65.101,96.195
			c0.539,0,0.795,0.491,0.795,0.827c0,0.44-0.424,0.877-0.875,0.877c-0.514,0-0.882-0.401-0.882-0.848
			c0-0.381,0.351-0.856,0.95-0.856H65.101z"/>
		<path fill="#0076BF" d="M71.349,104.686c-1.562,1.733-2.654,2.229-3.195,2.229c-0.371-0.074-0.932-0.415-1.18-0.882
			c-0.101-0.205-0.154-0.426-0.154-0.677c0-0.626,0.206-1.634,0.527-2.536c0.506-1.378,1.704-3.348,3.32-3.348
			c0.644,0,1.195,0.301,1.654,0.808h0.1l0.371-0.877c0.32,0.084,0.629,0.17,0.93,0.275c-0.441,1.533-1.195,4.495-1.568,6.25
			c0,0.05,0.029,0.09,0.082,0.09c0.136,0,0.589-0.121,1.146-0.286c0.065,0.226,0.123,0.456,0.155,0.702
			c-0.712,0.256-1.557,0.431-2.055,0.431c-0.073,0-0.384-0.205-0.461-0.405c0.067-0.286,0.237-1.003,0.445-1.729L71.349,104.686z
			 M70.646,100.365c-0.842,0-1.549,1.093-1.952,2.03c-0.368,0.922-0.627,1.979-0.627,2.781c0,0.486,0.259,0.731,0.539,0.731
			c0.797,0,2.687-1.835,2.99-2.691c0.117-0.32,0.418-1.519,0.519-2.024c-0.349-0.537-0.87-0.827-1.448-0.827H70.646z"/>
		<path fill="#0076BF" d="M84.78,95.319c0.355,0,0.795,0.103,0.982,0.205c-0.012,0.311-0.421,0.941-0.677,1.066
			c-0.133-0.051-0.691-0.296-1.181-0.296c-0.358,0-0.842,0.187-1.215,0.606c-0.501,0.612-0.672,1.479-0.957,2.777
			c0.802-0.021,1.651-0.021,2.393-0.041c-0.035,0.266-0.12,0.602-0.189,0.842c-0.654,0.021-1.654,0.021-2.359,0.021
			c-0.578,2.752-1.194,5.769-1.866,8.922c-0.392,0.015-0.762,0.015-1.168,0.015c0.637-3.098,1.263-6.119,1.84-8.922
			c-0.406,0-0.875,0-1.368,0c0.053-0.25,0.1-0.541,0.152-0.776c0.456-0.03,0.893-0.045,1.311-0.06c0.056,0,0.105-0.056,0.105-0.121
			c0.301-1.549,0.606-2.33,1.418-3.107c0.985-0.926,1.936-1.131,2.77-1.131H84.78z"/>
		<path fill="#0076BF" d="M88.564,104.686c-1.554,1.733-2.651,2.229-3.192,2.229c-0.368-0.074-0.923-0.415-1.186-0.882
			c-0.096-0.205-0.146-0.426-0.146-0.677c0-0.626,0.198-1.634,0.526-2.536c0.502-1.378,1.696-3.348,3.315-3.348
			c0.644,0,1.2,0.301,1.659,0.808h0.098l0.379-0.877c0.314,0.084,0.619,0.17,0.917,0.275c-0.434,1.533-1.193,4.495-1.562,6.25
			c0,0.05,0.029,0.09,0.083,0.09c0.133,0,0.591-0.121,1.149-0.286c0.063,0.226,0.115,0.456,0.151,0.702
			c-0.71,0.256-1.554,0.431-2.061,0.431c-0.072,0-0.371-0.205-0.453-0.405c0.067-0.286,0.237-1.003,0.44-1.729L88.564,104.686z
			 M87.87,100.365c-0.847,0-1.556,1.093-1.957,2.03c-0.371,0.922-0.616,1.979-0.616,2.781c0,0.486,0.245,0.731,0.526,0.731
			c0.794,0,2.691-1.835,2.992-2.691c0.119-0.32,0.424-1.519,0.521-2.024c-0.356-0.537-0.878-0.827-1.454-0.827H87.87z"/>
		<path fill="#0076BF" d="M92.645,100.615c-0.019-0.25-0.035-0.491-0.035-0.727c1.083-0.15,2.022-0.416,2.104-0.416
			c0.104,0,0.358,0.235,0.444,0.371c-0.12,0.466-0.276,1.112-0.494,2.09l0.118,0.05c1-1.504,2.047-2.511,2.653-2.511
			c0.346,0,0.654,0.136,0.822,0.235c0,0.416-0.366,1.184-0.554,1.269c-0.118-0.055-0.467-0.165-0.687-0.165
			c-0.683,0-2.318,1.858-2.691,3.277c-0.131,0.526-0.454,1.944-0.604,2.616c-0.389,0-0.771,0-1.147,0
			c0.318-1.378,0.982-4.33,1.386-6.226L92.645,100.615z"/>
		<path fill="#0076BF" d="M99.271,100.636c-0.021-0.261-0.033-0.496-0.033-0.732c1.301-0.195,1.984-0.431,2.107-0.431
			c0.133,0,0.326,0.165,0.457,0.355c-0.104,0.452-0.224,0.973-0.394,1.72l0.138,0.035c1.288-1.568,2.396-2.11,3.074-2.11
			c0.369,0.03,0.795,0.28,1.027,0.728c0.068,0.109,0.104,0.279,0.104,0.465c0,0.146-0.053,0.547-0.136,0.973l0.101,0.03
			c1.28-1.634,2.396-2.146,3.102-2.165c0.336,0.04,0.865,0.352,1.091,0.848c0.072,0.149,0.11,0.33,0.11,0.506
			c0,0.691-0.544,2.812-1.235,5.052c-0.035,0.05,0,0.11,0.05,0.11c0.203,0,0.624-0.09,1.186-0.256
			c0.047,0.23,0.08,0.477,0.112,0.707c-0.722,0.235-1.436,0.396-2.155,0.396c-0.08,0-0.358-0.275-0.453-0.516
			c0.281-0.868,0.725-2.446,0.92-3.233c0.109-0.476,0.375-1.469,0.375-1.959c0-0.285-0.17-0.592-0.57-0.592
			c-0.928,0-2.717,1.945-2.971,2.942c-0.243,0.956-0.528,2.1-0.779,3.183c-0.385,0.015-0.759,0.015-1.146,0.015
			c0.215-0.847,0.762-3.047,0.946-3.885c0.118-0.48,0.304-1.433,0.304-1.759c0-0.261-0.153-0.531-0.488-0.531
			c-0.996,0-2.734,1.93-2.987,2.922c-0.169,0.637-0.609,2.566-0.775,3.238c-0.37,0.015-0.759,0.015-1.149,0.015
			c0.371-1.514,1.002-4.266,1.44-6.226L99.271,100.636z"/>
		<path fill="#0076BF" d="M116.271,104.686c-1.551,1.733-2.644,2.229-3.188,2.229c-0.373-0.074-0.93-0.415-1.18-0.882
			c-0.104-0.205-0.156-0.426-0.156-0.677c0-0.626,0.209-1.634,0.52-2.536c0.519-1.378,1.709-3.348,3.327-3.348
			c0.644,0,1.2,0.301,1.651,0.808h0.107l0.372-0.877c0.315,0.084,0.624,0.17,0.924,0.275c-0.436,1.533-1.194,4.495-1.57,6.25
			c0,0.05,0.04,0.09,0.085,0.09c0.133,0,0.599-0.121,1.152-0.286c0.063,0.226,0.113,0.456,0.146,0.702
			c-0.699,0.256-1.546,0.431-2.05,0.431c-0.075,0-0.376-0.205-0.461-0.405c0.07-0.286,0.232-1.003,0.438-1.729L116.271,104.686z
			 M115.584,100.365c-0.845,0-1.56,1.093-1.957,2.03c-0.379,0.922-0.627,1.979-0.627,2.781c0,0.486,0.248,0.731,0.536,0.731
			c0.798,0,2.685-1.835,2.987-2.691c0.118-0.32,0.424-1.519,0.521-2.024c-0.348-0.537-0.877-0.827-1.451-0.827H115.584z"/>
		<path fill="#0076BF" d="M120.05,104.66c0-1.002,0.424-2.691,1.533-3.89c0.865-0.927,1.669-1.298,2.855-1.298
			c0.538,0,1.009,0.165,1.189,0.321c-0.045,0.316-0.466,0.917-0.687,1.047c-0.12-0.07-0.76-0.411-1.233-0.411
			c-0.573,0-1.027,0.371-1.298,0.728c-0.589,0.776-1.08,2.175-1.08,3.288c0,1.097,0.526,1.513,1.283,1.513
			c0.521,0,1.415-0.28,2.073-0.571c0.084,0.206,0.149,0.441,0.202,0.667c-0.725,0.365-1.819,0.827-2.694,0.827
			c-1.034,0-2.145-0.728-2.145-2.211V104.66z"/>
		<path fill="#0076BF" d="M126.327,104.87c0-1.012,0.484-2.816,1.602-4.084c0.837-0.942,1.654-1.313,2.525-1.313
			c1.198,0,1.824,0.942,1.835,1.79c-0.08,0.536-0.434,1.248-0.923,1.513c-0.93,0.481-2.097,0.646-3.568,0.646
			c-0.112,0.401-0.213,0.968-0.213,1.298c0,0.797,0.422,1.238,1.156,1.238c0.668,0,1.729-0.365,2.663-0.882
			c0.098,0.216,0.178,0.44,0.271,0.656c-0.97,0.592-2.213,1.148-3.375,1.148c-0.897,0-1.973-0.677-1.973-1.995V104.87z
			 M130.106,100.28c-0.523,0-0.955,0.285-1.303,0.722c-0.273,0.36-0.587,0.856-0.83,1.684c0.899,0.03,1.789-0.115,2.398-0.416
			c0.386-0.165,0.687-0.437,0.687-0.907c0-0.551-0.278-1.082-0.942-1.082H130.106z M132.638,96.856
			c-0.865,0.592-1.85,1.278-2.707,1.85c-0.145-0.155-0.283-0.352-0.418-0.526c0.807-0.666,1.719-1.468,2.496-2.115
			C132.249,96.295,132.446,96.591,132.638,96.856z"/>
		<path fill="#0076BF" d="M133.84,100.655c-0.015-0.256-0.03-0.501-0.06-0.711c1.172-0.221,2.167-0.472,2.258-0.472
			c0.12,0,0.373,0.251,0.416,0.431c-0.331,1.053-0.835,2.912-1.021,3.765c-0.122,0.526-0.255,1.218-0.255,1.583
			c0,0.427,0.235,0.622,0.521,0.622c0.837,0,2.717-1.885,2.95-2.731c0.152-0.521,0.599-2.576,0.779-3.483
			c0.4-0.021,0.797-0.021,1.18-0.021c-0.188,0.842-1.063,4.797-1.348,6.26c-0.013,0.061,0.029,0.096,0.067,0.096
			c0.168,0,0.621-0.085,1.211-0.261c0.069,0.226,0.122,0.456,0.149,0.687c-0.762,0.307-1.565,0.446-2.072,0.446
			c-0.082,0-0.351-0.24-0.473-0.461c0.05-0.261,0.167-0.888,0.343-1.634l-0.103-0.04c-1.246,1.368-2.396,2.165-3.123,2.185
			c-0.333-0.05-0.826-0.36-1.077-0.711c-0.133-0.186-0.203-0.426-0.203-0.723c0-0.852,0.604-3.227,1.13-4.967L133.84,100.655z"/>
		<path fill="#0076BF" d="M143.919,105.262c0,0.471,0.294,0.687,0.75,0.687s1.22-0.141,1.924-0.341
			c0.038,0.221,0.051,0.491,0.068,0.731c-0.908,0.331-1.955,0.526-2.579,0.526c-0.456,0-1.165-0.396-1.373-1.058
			c-0.028-0.095-0.045-0.215-0.045-0.291c0-0.521,0.474-2.565,0.568-3.026c0.144-0.571,0.346-1.509,0.444-1.976
			c-0.371,0-0.883,0-1.316,0c0.048-0.25,0.101-0.521,0.155-0.762c0.424-0.029,0.837-0.06,1.248-0.074
			c0.028,0,0.112-0.041,0.133-0.121c0.133-0.477,0.286-1.082,0.421-1.568c0.401-0.19,0.933-0.291,1.098-0.291
			c0.035,0,0.053,0.021,0.053,0.07c-0.101,0.486-0.268,1.243-0.424,1.91c0.845,0,1.72,0,2.549-0.021
			c-0.032,0.296-0.1,0.606-0.172,0.856c-0.723,0-1.635,0-2.566,0c-0.113,0.467-0.331,1.454-0.449,2.006
			c-0.17,0.767-0.486,2.266-0.486,2.73V105.262z"/>
		<path fill="#0076BF" d="M148.513,100.601c-0.013-0.235-0.013-0.477-0.032-0.712c1.335-0.181,2.212-0.416,2.365-0.416
			c0.083,0,0.354,0.266,0.441,0.416c-0.396,1.659-1.238,5.208-1.44,6.04c-0.031,0.064,0,0.125,0.055,0.125
			c0.232,0,0.707-0.125,1.28-0.275c0.048,0.24,0.105,0.461,0.112,0.711c-0.686,0.216-1.463,0.376-2.103,0.376
			c-0.085,0-0.493-0.296-0.591-0.526c0.389-1.669,0.922-3.914,1.351-5.824L148.513,100.601z M151.087,96.195
			c0.533,0,0.789,0.491,0.789,0.827c0,0.44-0.422,0.877-0.883,0.877c-0.504,0-0.872-0.401-0.872-0.848
			c0-0.381,0.352-0.856,0.942-0.856H151.087z"/>
		<path fill="#0076BF" d="M152.886,104.66c0-1.002,0.418-2.691,1.533-3.89c0.862-0.927,1.675-1.298,2.85-1.298
			c0.546,0,1.015,0.165,1.203,0.321c-0.055,0.316-0.477,0.917-0.699,1.047c-0.113-0.07-0.76-0.411-1.229-0.411
			c-0.576,0-1.029,0.371-1.295,0.728c-0.594,0.776-1.078,2.175-1.078,3.288c0,1.097,0.52,1.513,1.278,1.513
			c0.519,0,1.411-0.28,2.072-0.571c0.085,0.206,0.155,0.441,0.206,0.667c-0.725,0.365-1.819,0.827-2.704,0.827
			c-1.025,0-2.138-0.728-2.138-2.211V104.66z"/>
		<path fill="#0076BF" d="M163.691,104.686c-1.552,1.733-2.642,2.229-3.186,2.229c-0.373-0.074-0.925-0.415-1.175-0.882
			c-0.105-0.205-0.152-0.426-0.152-0.677c0-0.626,0.197-1.634,0.521-2.536c0.499-1.378,1.707-3.348,3.326-3.348
			c0.639,0,1.189,0.301,1.65,0.808h0.099l0.371-0.877c0.325,0.084,0.623,0.17,0.927,0.275c-0.434,1.533-1.198,4.495-1.568,6.25
			c0,0.05,0.034,0.09,0.09,0.09c0.132,0,0.589-0.121,1.145-0.286c0.065,0.226,0.116,0.456,0.15,0.702
			c-0.706,0.256-1.551,0.431-2.057,0.431c-0.067,0-0.371-0.205-0.459-0.405c0.07-0.286,0.235-1.003,0.438-1.729L163.691,104.686z
			 M163.003,100.365c-0.848,0-1.545,1.093-1.953,2.03c-0.373,0.922-0.629,1.979-0.629,2.781c0,0.486,0.256,0.731,0.537,0.731
			c0.799,0,2.684-1.835,2.989-2.691c0.12-0.32,0.421-1.519,0.528-2.024c-0.361-0.537-0.882-0.827-1.45-0.827H163.003z"/>
	</g>
</g>
</svg>
